<?xml version="1.0" encoding="UTF-8" standalone="no"?>
<!-- Created with Inkscape (http://www.inkscape.org/) -->

<svg
   width="210mm"
   height="297mm"
   viewBox="0 0 210 297"
   version="1.1"
   id="svg1"
   xml:space="preserve"
   inkscape:version="1.3.2 (091e20e, 2023-11-25, custom)"
   sodipodi:docname="Ellevera_25C.svg"
   inkscape:export-filename="Ellevera_25C.png"
   inkscape:export-xdpi="96"
   inkscape:export-ydpi="96"
   xmlns:inkscape="http://www.inkscape.org/namespaces/inkscape"
   xmlns:sodipodi="http://sodipodi.sourceforge.net/DTD/sodipodi-0.dtd"
   xmlns="http://www.w3.org/2000/svg"
   xmlns:svg="http://www.w3.org/2000/svg"><sodipodi:namedview
     id="namedview1"
     pagecolor="#ffffff"
     bordercolor="#000000"
     borderopacity="0.25"
     inkscape:showpageshadow="2"
     inkscape:pageopacity="0.0"
     inkscape:pagecheckerboard="0"
     inkscape:deskcolor="#d1d1d1"
     inkscape:document-units="mm"
     inkscape:zoom="0.5412456"
     inkscape:cx="390.7653"
     inkscape:cy="856.358"
     inkscape:window-width="1440"
     inkscape:window-height="829"
     inkscape:window-x="-8"
     inkscape:window-y="-8"
     inkscape:window-maximized="1"
     inkscape:current-layer="layer1" /><defs
     id="defs1" /><g
     inkscape:label="Layer 1"
     inkscape:groupmode="layer"
     id="layer1"><g
       id="g261255"
       transform="translate(7.7321157,44.781837)"><g
         id="g261168"
         transform="matrix(0.79444307,0,0,0.83975743,-16.304733,-30.670963)"
         style="stroke-width:1.22432"><path
           style="fill:#5c7cc2;fill-opacity:1;stroke:none;stroke-width:0.734587;stroke-dasharray:none;stroke-opacity:1"
           d="m 79.065514,226.37331 c -2.347567,0.50695 -2.880749,2.86836 -3.953161,4.67862 1.208748,1.55448 2.459232,3.09402 4.248725,4.44074 2.38853,0.53144 5.539355,0.67431 8.719123,0.13216 0.224641,-0.28025 0.194064,-0.70658 -0.07388,-1.26878 -0.722547,-0.48917 -1.468144,-0.97113 -3.73149,-0.97801 -0.06369,-0.76826 -0.127118,-1.53648 -1.440871,-2.51113 0.686593,-0.90893 0.4179,-2.25277 0.03694,-3.64774 -2.211416,2.13256 -3.465839,1.81468 -3.805374,-0.84586 z"
           id="path261148"
           sodipodi:nodetypes="ccccccccc" /><path
           style="display:inline;fill:#b15333;fill-opacity:1;stroke-width:0.122432"
           d="m 107.67133,161.25758 c 0.44208,0.56391 0.56218,1.12781 0.73891,1.69171 h -0.96059 c -0.56649,1.1797 -1.13299,1.72696 -1.69949,2.59043 -0.66501,0.10221 -1.33003,0.0408 -1.99505,-0.1057 -0.24542,0.76492 -1.07038,1.44691 -1.6256,2.16751 -1.39343,-0.65486 -2.566983,-1.42209 -3.472866,-2.32611 0.427474,-0.34617 0.655578,-0.83498 1.330034,-1.00445 l -0.221671,-1.16305 c -0.370617,-2.73152 0.605103,-3.18165 2.881743,-1.42738 l 0.8128,-1.21591 c 1.42412,-0.0825 2.85494,-0.27989 4.21178,0.79295 z"
           id="path261149"
           sodipodi:nodetypes="cccccccccccc" /><path
           style="fill:#000000;fill-opacity:1;stroke-width:0.122432"
           d="m 99.223362,162.93252 c -0.958788,-0.63274 -1.159406,-1.48245 -0.888228,-2.46719 l 4.650136,-0.11215 c 0.11187,0.76688 -0.0191,1.34101 -0.31349,1.19622 -3.558984,-2.2118 -2.18417,0.51607 -3.448418,1.38312 z"
           id="path261150"
           sodipodi:nodetypes="ccccc" /><path
           style="fill:#647ec3;fill-opacity:1;stroke-width:0.122432"
           d="m 96.166811,160.18497 c 5.965059,0.73685 14.946439,1.28162 17.895189,0.0374 0.022,-0.7597 -2.73708,-0.64159 -4.96363,-0.69157 -1.08737,-4.99467 -11.581877,-4.90306 -11.128978,-0.14952 z"
           id="path261151"
           sodipodi:nodetypes="ccccc" /><path
           style="fill:#000000;fill-opacity:1;stroke-width:0.122432"
           id="path261152"
           sodipodi:type="arc"
           sodipodi:cx="105.86734"
           sodipodi:cy="161.86575"
           sodipodi:rx="0.16625445"
           sodipodi:ry="0.12555644"
           sodipodi:start="0.037475209"
           sodipodi:end="0.034745446"
           sodipodi:open="true"
           sodipodi:arc-type="arc"
           d="m 106.03348,161.87046 a 0.16625445,0.12555644 0 0 1 -0.17226,0.12076 0.16625445,0.12555644 0 0 1 -0.16003,-0.13 0.16625445,0.12555644 0 0 1 0.17204,-0.12094 0.16625445,0.12555644 0 0 1 0.16026,0.12983" /><path
           style="fill:#000000;fill-opacity:1;stroke:#000000;stroke-width:0.122432;stroke-opacity:1"
           d="m 106.12596,163.80195 c 0.94503,0.0846 0.36945,0.25112 0.36945,0.25112"
           id="path261153"
           sodipodi:nodetypes="cc" /><path
           style="fill:#faa60a;fill-opacity:1;stroke:none;stroke-width:0.734587;stroke-dasharray:none;stroke-opacity:1"
           d="m 106.85167,228.12642 c -0.069,0.7986 -0.30098,1.66198 0.83599,1.98124 1.42566,0.77982 2.94243,2.21144 3.9709,0.14952 0.70436,-1.53497 -0.27843,-1.74217 -0.88823,-2.2429 z"
           id="path261154"
           sodipodi:nodetypes="ccccc" /><path
           style="fill:#353341;fill-opacity:1;stroke:none;stroke-width:0.122432;stroke-opacity:1"
           d="m 89.436677,194.18551 c 3.103129,5.8156 4.583416,13.6631 9.310249,17.44574 l 3.103414,16.07122 c 4.6015,0.8873 8.78908,1.10827 11.82254,-0.52866 -2.60954,-10.96085 -5.13974,-21.92171 -10.04916,-32.88256 z"
           id="path261155"
           sodipodi:nodetypes="cccccc" /><path
           style="fill:#120f20;fill-opacity:1;stroke:none;stroke-width:0.122432;stroke-opacity:1"
           d="m 86.664683,193.86831 c 0.05799,4.4858 0.03712,9.04213 1.625598,12.15916 -6.924413,6.0972 -7.780649,12.1944 -11.526974,18.29159 6.017693,5.01125 8.49233,4.40623 10.492502,3.27768 3.976006,-4.87125 8.017746,-9.62494 11.231412,-15.85975 l -8.719123,-17.6572 z"
           id="path261156"
           sodipodi:nodetypes="ccccccc" /><path
           style="fill:#f8a701;fill-opacity:1;stroke:none;stroke-width:0.122432;stroke-opacity:1"
           d="m 97.969392,164.80162 c -6.274374,1.60247 -9.42607,5.4203 -11.024482,8.82211 2.183144,0.99652 4.283488,2.08189 7.001329,2.50458 -3.493706,2.78461 -6.781313,5.70231 -8.464294,8.85949 l -0.940476,9.08378 c 7.573829,0.93265 14.185498,0.95811 19.279781,-0.0748 l 0.26124,-23.88698 c 0.94304,-2.21368 -4.01819,-3.5473 -6.113098,-5.30816 z"
           id="path261157"
           sodipodi:nodetypes="cccccccc" /><path
           style="fill:#ae5031;fill-opacity:1;stroke:none;stroke-width:0.122432;stroke-opacity:1"
           d="m 87.510683,173.33108 6.949081,2.4672 c -2.64709,2.41793 -5.014321,5.7369 -7.941807,7.25207 -1.565031,3.69118 -1.46076,5.52986 -3.552913,7.73804 0.323088,1.72918 0.761732,3.57409 0.417988,4.63534 -0.777507,0.9933 -1.469249,2.10932 -2.507938,2.72888 -0.23138,-0.0455 -0.429787,-0.11946 -0.41799,-0.37382 0.39559,-0.48546 0.491067,-0.94024 1.201722,-1.4579 l -0.626986,-0.37382 c -0.576208,0.74914 -1.320965,0.95561 -1.985452,1.42052 -0.68641,-0.0303 -0.720196,-0.20656 -0.626984,-0.4112 0.604184,-0.40939 1.180295,-0.93929 1.828704,-1.15884 l -0.470238,-0.56072 c -0.382305,0.70554 -1.061545,0.87998 -1.61971,1.27098 -0.421589,-0.14476 -0.59046,-0.30596 -0.470239,-0.48597 l 1.619711,-1.08406 -0.41799,-0.14954 c -0.375846,0.076 -0.728671,0.23435 -1.149472,0.14954 -0.331372,-0.11215 -0.131983,-0.2243 -0.156746,-0.33644 l 2.560188,-2.35506 c 0.548655,-3.21112 0.676187,-6.24146 1.67196,-9.64451 0.690384,-3.33716 3.764169,-6.18712 5.695111,-9.27069 z"
           id="path261158"
           sodipodi:nodetypes="cccccccccccccccccccccc" /><path
           style="fill:#d27d17;fill-opacity:1;stroke:none;stroke-width:0.122432;stroke-opacity:1"
           d="m 103.91832,169.28743 3.13492,5.04654 -3.08267,1.38313 z"
           id="path261159" /><path
           style="fill:#b3522d;fill-opacity:1;stroke:none;stroke-width:0.122432;stroke-opacity:1"
           d="m 103.90936,175.48375 1.8287,-0.63551 5.43387,9.53237 c 2.45153,2.42052 3.74431,4.5647 5.43387,6.8035 2.02461,0.99462 4.58381,1.9346 3.81415,3.21483 -0.18798,0.53966 -0.28973,1.17188 -1.8287,0.26167 -0.22945,-1.39468 -0.92024,-2.01918 -1.98545,-2.01862 l 0.26124,1.0467 c -0.74006,-0.11288 -1.38424,-0.77455 -1.98545,-1.68219 -3.16181,-1.35942 -6.04384,-3.41943 -8.93453,-5.45774 l -2.0377,-3.99986 z"
           id="path261160"
           sodipodi:nodetypes="cccccccccccc" /><path
           style="fill:#f7a701;fill-opacity:1;stroke:#dc9202;stroke-width:0.122432;stroke-opacity:1"
           d="m 88.444016,172.49328 c 2.819649,1.72958 5.602512,2.48326 8.357566,2.49918 2.045354,-1.22413 1.91667,-3.01307 1.861244,-4.78298 -1.077831,-2.6242 -3.129822,-3.25252 -6.012321,-2.17927 -2.985029,1.10522 -3.303751,2.57413 -4.34757,3.94413 z"
           id="path261161"
           sodipodi:nodetypes="cccccc" /><path
           style="fill:#f8a701;fill-opacity:1;stroke:#dc9202;stroke-width:0.122432;stroke-opacity:1"
           d="m 93.758205,176.8455 c -3.688687,5.99089 -3.806949,11.63345 -4.581235,17.34001"
           id="path261162"
           sodipodi:nodetypes="cc" /><path
           style="fill:#fffbf3;fill-opacity:1;stroke:none;stroke-width:0.122432;stroke-opacity:1"
           id="path261163"
           sodipodi:type="arc"
           sodipodi:cx="100.47733"
           sodipodi:cy="162.45592"
           sodipodi:rx="0.26124364"
           sodipodi:ry="0.13083637"
           sodipodi:start="0.037475209"
           sodipodi:end="0.034745446"
           sodipodi:open="true"
           sodipodi:arc-type="arc"
           d="m 100.73839,162.46082 a 0.26124364,0.13083637 0 0 1 -0.27067,0.12585 0.26124364,0.13083637 0 0 1 -0.25146,-0.13548 0.26124364,0.13083637 0 0 1 0.27033,-0.12603 0.26124364,0.13083637 0 0 1 0.25183,0.1353" /><path
           style="fill:#353342;fill-opacity:1;stroke:none;stroke-width:0.734587;stroke-dasharray:none;stroke-opacity:1"
           d="m 78.323871,221.32293 10.345247,4.41104 c -0.710007,2.28901 -2.369247,2.54059 -4.179898,2.46721 -2.557202,0.60157 -7.995973,-3.28033 -7.314821,-4.11201 z"
           id="path261164"
           sodipodi:nodetypes="ccccc" /><path
           style="fill:#645f7f;fill-opacity:1;stroke:none;stroke-width:0.734587;stroke-dasharray:none;stroke-opacity:1"
           d="m 102.10787,225.00633 11.3053,-0.52867 c 0.54714,0.93395 1.46631,2.90629 0.59113,2.80188 -3.17126,1.86811 -8.57243,0.9906 -11.3053,0.42293 -0.82308,-0.57877 -0.723,-1.62934 -0.59113,-2.69614 z"
           id="path261165"
           sodipodi:nodetypes="ccccc" /><path
           style="fill:#f6a91a;fill-opacity:1;stroke:none;stroke-width:0.734587;stroke-dasharray:none;stroke-opacity:1"
           d="m 79.127815,226.2751 c -0.25075,0.89871 -0.265926,1.79743 0.07389,2.69616 1.183146,0.78752 2.012352,0.24559 2.807852,-0.42293 v -0.74013 z"
           id="path261166"
           sodipodi:nodetypes="ccccc" /><path
           style="fill:#5f7dc6;fill-opacity:1;stroke:none;stroke-width:0.734587;stroke-dasharray:none;stroke-opacity:1"
           d="m 106.92543,229.03704 c -0.23591,2.04697 0.32057,4.18345 1.36396,6.37494 4.6934,0.63159 9.37056,0.77662 14.03896,0.65883 0.67137,-0.87627 -0.0271,-1.61722 -0.70294,-2.3604 -1.54133,-0.62559 -3.12388,-0.69585 -4.70212,-0.8239 -0.55183,-0.99258 -1.71994,-0.96557 -2.59956,-1.41584 l -0.9696,-1.62205 c -0.50256,-0.65936 -1.27494,-0.57163 -1.92758,-0.81543 -0.76428,1.27606 -1.27355,2.99375 -4.50112,0.004 z"
           id="path261167"
           sodipodi:nodetypes="ccccccccc" /></g><g
         id="g261189"
         transform="matrix(0.78475346,0,0,0.83975743,-13.497153,-27.080013)"
         style="stroke-width:1.23185"><path
           style="fill:#5c7cc2;fill-opacity:1;stroke:none;stroke-width:0.739108;stroke-dasharray:none;stroke-opacity:1"
           d="m 134.55511,224.30108 c -2.34756,0.50695 -2.88075,2.86836 -3.95316,4.67862 1.20875,1.55448 2.45923,3.09402 4.24873,4.44074 2.38853,0.53144 5.53935,0.67431 8.71912,0.13216 0.22464,-0.28025 0.19406,-0.70658 -0.0739,-1.26878 -0.72255,-0.48917 -1.46814,-0.97113 -3.73149,-0.97801 -0.0637,-0.76826 -0.12712,-1.53648 -1.44087,-2.51113 0.68659,-0.90893 0.4179,-2.25277 0.0369,-3.64774 -2.21142,2.13256 -3.46584,1.81468 -3.80537,-0.84586 z"
           id="path261168"
           sodipodi:nodetypes="ccccccccc" /><path
           style="display:inline;fill:#b15333;fill-opacity:1;stroke-width:0.123185"
           d="m 163.16093,159.18535 c 0.44208,0.56391 0.56218,1.12781 0.73891,1.69171 h -0.96059 c -0.56649,1.1797 -1.13299,1.72696 -1.69949,2.59043 -0.66501,0.10221 -1.33003,0.0408 -1.99505,-0.1057 -0.24542,0.76492 -1.07038,1.44691 -1.6256,2.16751 -1.39343,-0.65486 -2.56698,-1.42209 -3.47287,-2.32611 0.42748,-0.34617 0.65558,-0.83498 1.33004,-1.00445 l -0.22167,-1.16305 c -0.37062,-2.73152 0.6051,-3.18165 2.88174,-1.42738 l 0.8128,-1.21591 c 1.42412,-0.0825 2.85494,-0.27989 4.21178,0.79295 z"
           id="path261169"
           sodipodi:nodetypes="cccccccccccc" /><path
           style="fill:#000000;fill-opacity:1;stroke-width:0.123185"
           d="m 154.71296,160.86029 c -0.95879,-0.63274 -1.1594,-1.48245 -0.88823,-2.46719 l 4.65014,-0.11215 c 0.11187,0.76688 -0.0191,1.34101 -0.31349,1.19622 -3.55898,-2.2118 -2.18417,0.51607 -3.44842,1.38312 z"
           id="path261170"
           sodipodi:nodetypes="ccccc" /><path
           style="fill:#647ec3;fill-opacity:1;stroke-width:0.123185"
           d="m 151.65641,158.11274 c 5.96506,0.73685 14.94644,1.28162 17.89519,0.0374 0.022,-0.7597 -2.73708,-0.64159 -4.96363,-0.69157 -1.08737,-4.99467 -11.58188,-4.90306 -11.12898,-0.14952 z"
           id="path261171"
           sodipodi:nodetypes="ccccc" /><path
           style="fill:#000000;fill-opacity:1;stroke-width:0.123185"
           id="path261172"
           sodipodi:type="arc"
           sodipodi:cx="161.35693"
           sodipodi:cy="159.79353"
           sodipodi:rx="0.16625445"
           sodipodi:ry="0.12555644"
           sodipodi:start="0.037475209"
           sodipodi:end="0.034745446"
           sodipodi:open="true"
           sodipodi:arc-type="arc"
           d="m 161.52307,159.79824 a 0.16625445,0.12555644 0 0 1 -0.17225,0.12076 0.16625445,0.12555644 0 0 1 -0.16003,-0.13 0.16625445,0.12555644 0 0 1 0.17203,-0.12094 0.16625445,0.12555644 0 0 1 0.16027,0.12983" /><path
           style="fill:#000000;fill-opacity:1;stroke:#000000;stroke-width:0.123185;stroke-opacity:1"
           d="m 161.61556,161.72972 c 0.94503,0.0846 0.36945,0.25112 0.36945,0.25112"
           id="path261173"
           sodipodi:nodetypes="cc" /><path
           style="fill:#faa60a;fill-opacity:1;stroke:none;stroke-width:0.739108;stroke-dasharray:none;stroke-opacity:1"
           d="m 162.34127,226.05419 c -0.069,0.7986 -0.30098,1.66198 0.83599,1.98124 1.42566,0.77982 2.94243,2.21144 3.9709,0.14952 0.70436,-1.53497 -0.27843,-1.74217 -0.88823,-2.2429 z"
           id="path261174"
           sodipodi:nodetypes="ccccc" /><path
           style="fill:#b3522d;fill-opacity:1;stroke:none;stroke-width:0.123184;stroke-opacity:1"
           d="m 159.5273,173.25067 2.6246,-1.42834 -1.5032,12.17088 c -0.5191,3.49541 -1.16631,6.18709 -1.96947,8.98211 1.5565,1.36397 0.35409,4.61535 -0.68133,4.80408 -1.15835,-0.0965 -1.07668,0.57322 -1.22638,-1.20892 0.9604,-1.11742 0.4994,-1.36029 0.46593,-2.87031 l -1.47131,1.19607 c -0.32555,-0.63724 0.7229,-3.03508 1.09534,-4.10473 -0.7062,-3.31588 -0.80088,-5.72163 -0.82559,-9.29129 l 1.98319,-4.25024 z"
           id="path261180"
           sodipodi:nodetypes="cccccccccccc"
           inkscape:label="lefthand" /><path
           style="fill:#120f20;fill-opacity:1;stroke:none;stroke-width:0.123185;stroke-opacity:1"
           d="m 145.15653,190.04105 c 3.10313,5.8156 4.58341,13.6631 9.31025,17.44574 l 3.10341,16.07122 c 4.6015,0.8873 8.78908,1.10827 11.82254,-0.52866 -2.60954,-10.96085 -5.13974,-21.92171 -10.04916,-32.88256 z"
           id="path261175"
           sodipodi:nodetypes="cccccc" /><path
           style="fill:#353341;fill-opacity:1;stroke:none;stroke-width:0.123185;stroke-opacity:1"
           d="m 140.80852,189.18154 c 0.47828,4.4606 0.88463,8.99883 2.75836,11.9532 -6.3223,6.71951 -6.60314,12.87014 -9.76135,19.2917 6.46099,4.42501 8.86801,3.59066 10.75356,2.27956 3.50182,-5.22255 6.8158,-11.0589 9.4308,-17.56753 l 5.66557,-17.77645 z"
           id="path261176"
           sodipodi:nodetypes="ccccccc" /><path
           style="fill:#f8a701;fill-opacity:1;stroke:none;stroke-width:0.123185;stroke-opacity:1"
           d="m 153.45899,162.72939 c -7.87839,0.12183 -11.40025,8.1348 -12.99866,11.53661 2.18314,0.99652 2.43269,1.95851 5.76746,0.65379 -3.00016,4.88218 -4.19019,5.45553 -4.39254,8.24255 l -1.80418,8.83701 c 7.57383,0.93265 14.1855,0.95811 19.27978,-0.0748 l 0.0145,-23.76359 c 0.94304,-2.21368 -3.77142,-3.67069 -5.86633,-5.43155 z"
           id="path261177"
           sodipodi:nodetypes="ccccccccc"
           inkscape:label="shirt" /><path
           style="fill:#f8a701;fill-opacity:1;stroke:#dc9202;stroke-width:0.123185;stroke-opacity:1"
           d="m 149.2478,174.77327 c -3.68868,5.99089 -3.80694,11.63345 -4.58123,17.34001"
           id="path261182"
           sodipodi:nodetypes="cc" /><path
           style="fill:#ae5031;fill-opacity:1;stroke:none;stroke-width:0.123185;stroke-opacity:1"
           d="m 142.20481,173.71542 5.98977,0.39871 c -0.48976,1.97057 -1.2702,5.27386 -0.23722,5.5416 3.12714,2.509 8.74997,5.49932 10.30668,8.11272 1.75192,0.15885 3.64661,0.23794 4.57455,0.85708 0.7447,1.01813 1.63081,1.98706 1.94486,3.15501 -0.10665,0.21031 -0.23173,0.38116 -0.47332,0.3007 -0.35972,-0.5126 -0.77145,-0.72804 -1.07657,-1.55261 l -0.5301,0.50184 c 0.56441,0.75807 0.56078,1.53091 0.82767,2.29671 -0.21565,0.65235 -0.39446,0.63699 -0.56608,0.49168 -0.22984,-0.69269 -0.58329,-1.39109 -0.61841,-2.07476 l -0.66739,0.30021 c 0.57514,0.55961 0.55847,1.26069 0.78312,1.9041 -0.25385,0.3664 -0.45487,0.48512 -0.59545,0.32052 l -0.60323,-1.85331 -0.25748,0.36164 c -0.029,0.38235 0.0276,0.76493 -0.16838,1.14686 -0.19796,0.28843 -0.25172,0.0661 -0.36637,0.0595 l -1.57091,-3.10373 c -2.94127,-1.40044 -5.82298,-2.34647 -8.82749,-4.22935 -2.16036,-0.95415 -6.78253,-4.81 -8.48518,-5.90204 z"
           id="path261178"
           sodipodi:nodetypes="ccccccccccccccccccccccc"
           inkscape:label="handright" /><path
           style="fill:#d27d17;fill-opacity:1;stroke:none;stroke-width:0.123185;stroke-opacity:1"
           d="m 159.28453,167.46197 c 3.40562,1.44549 2.49889,3.62994 3.25831,5.66348 l -3.45358,0.70488 z"
           id="path261179"
           sodipodi:nodetypes="cccc" /><path
           style="fill:#f7a701;fill-opacity:1;stroke:#dc9202;stroke-width:0.123185;stroke-opacity:1"
           d="m 142.41532,172.06523 c 2.0827,1.87263 5.61888,1.20802 7.65388,1.22526 1.51078,-1.32538 1.41573,-3.01552 1.37479,-4.93182 -0.79613,-2.84126 -2.31182,-3.52155 -4.44095,-2.35953 -2.20486,1.19664 -2.44028,2.78705 -3.21128,4.27036 z"
           id="path261181"
           sodipodi:nodetypes="cccccc" /><path
           style="fill:#fffbf3;fill-opacity:1;stroke:none;stroke-width:0.123185;stroke-opacity:1"
           id="path261183"
           sodipodi:type="arc"
           sodipodi:cx="155.96693"
           sodipodi:cy="160.3837"
           sodipodi:rx="0.26124364"
           sodipodi:ry="0.13083637"
           sodipodi:start="0.037475209"
           sodipodi:end="0.034745446"
           sodipodi:open="true"
           sodipodi:arc-type="arc"
           d="m 156.22799,160.3886 a 0.26124364,0.13083637 0 0 1 -0.27067,0.12585 0.26124364,0.13083637 0 0 1 -0.25146,-0.13548 0.26124364,0.13083637 0 0 1 0.27033,-0.12603 0.26124364,0.13083637 0 0 1 0.25183,0.1353" /><path
           style="fill:#645f7f;fill-opacity:1;stroke:none;stroke-width:0.739108;stroke-dasharray:none;stroke-opacity:1"
           d="m 133.81347,219.2507 10.34525,4.41104 c -0.71001,2.28901 -2.36925,2.54059 -4.1799,2.46721 -2.5572,0.60157 -7.99597,-3.28033 -7.31482,-4.11201 z"
           id="path261184"
           sodipodi:nodetypes="ccccc" /><path
           style="fill:#353342;fill-opacity:1;stroke:none;stroke-width:0.739108;stroke-dasharray:none;stroke-opacity:1"
           d="m 157.59747,222.9341 11.3053,-0.52867 c 0.54714,0.93395 1.46631,2.90629 0.59113,2.80188 -3.17126,1.86811 -8.57243,0.9906 -11.3053,0.42293 -0.82308,-0.57877 -0.723,-1.62934 -0.59113,-2.69614 z"
           id="path261185"
           sodipodi:nodetypes="ccccc" /><path
           style="fill:#f6a91a;fill-opacity:1;stroke:none;stroke-width:0.739108;stroke-dasharray:none;stroke-opacity:1"
           d="m 134.61741,224.20287 c -0.25075,0.89871 -0.26592,1.79743 0.0739,2.69616 1.18315,0.78752 2.01236,0.24559 2.80786,-0.42293 v -0.74013 z"
           id="path261186"
           sodipodi:nodetypes="ccccc" /><path
           style="fill:#5f7dc6;fill-opacity:1;stroke:none;stroke-width:0.739108;stroke-dasharray:none;stroke-opacity:1"
           d="m 162.41503,226.96481 c -0.23591,2.04697 0.32057,4.18345 1.36396,6.37494 4.6934,0.63159 9.37056,0.77662 14.03896,0.65883 0.67137,-0.87627 -0.0271,-1.61722 -0.70294,-2.3604 -1.54133,-0.62559 -3.12388,-0.69585 -4.70212,-0.8239 -0.55183,-0.99258 -1.71994,-0.96557 -2.59956,-1.41584 l -0.9696,-1.62205 c -0.50256,-0.65936 -1.27494,-0.57163 -1.92758,-0.81543 -0.76428,1.27606 -1.27355,2.99375 -4.50112,0.004 z"
           id="path261187"
           sodipodi:nodetypes="ccccccccc" /></g><g
         id="g261210"
         transform="matrix(0.78475346,0,0,0.83975743,-90.958256,19.219222)"
         style="stroke-width:1.23185"><path
           style="display:inline;fill:#b15333;fill-opacity:1;stroke-width:0.123185"
           d="m 151.14943,99.551483 c 0.44208,0.563907 0.56218,1.127807 0.73891,1.691707 h -0.96059 c -0.56649,1.1797 -1.13299,1.72696 -1.69949,2.59043 -0.66501,0.10221 -1.33003,0.0408 -1.99505,-0.1057 -0.24542,0.76492 -1.07038,1.44691 -1.6256,2.16751 -1.39343,-0.65486 -2.56698,-1.42209 -3.47287,-2.32611 0.42748,-0.34617 0.65558,-0.83498 1.33004,-1.00445 l -0.22167,-1.16305 c -0.37062,-2.731517 0.6051,-3.181647 2.88174,-1.427377 l 0.8128,-1.21591 c 1.42412,-0.0825 2.85494,-0.27989 4.21178,0.79295 z"
           id="path261190"
           sodipodi:nodetypes="cccccccccccc" /><path
           style="fill:#000000;fill-opacity:1;stroke-width:0.123185"
           d="m 142.70146,101.22642 c -0.95879,-0.63274 -1.1594,-1.482447 -0.88823,-2.467187 l 4.65014,-0.11215 c 0.11187,0.76688 -0.0191,1.34101 -0.31349,1.19622 -3.55898,-2.2118 -2.18417,0.516067 -3.44842,1.383117 z"
           id="path261191"
           sodipodi:nodetypes="ccccc" /><path
           style="fill:#647ec3;fill-opacity:1;stroke-width:0.123185"
           d="m 139.64491,98.478873 c 5.96506,0.73685 14.94644,1.28162 17.89519,0.0374 0.022,-0.7597 -2.73708,-0.64159 -4.96363,-0.69157 -1.08737,-4.99467 -11.58188,-4.90306 -11.12898,-0.14952 z"
           id="path261192"
           sodipodi:nodetypes="ccccc" /><path
           style="fill:#000000;fill-opacity:1;stroke-width:0.123185"
           id="path261193"
           sodipodi:type="arc"
           sodipodi:cx="149.34544"
           sodipodi:cy="100.15967"
           sodipodi:rx="0.16625445"
           sodipodi:ry="0.12555644"
           sodipodi:start="0.037475209"
           sodipodi:end="0.034745446"
           sodipodi:open="true"
           sodipodi:arc-type="arc"
           d="m 149.51158,100.16437 a 0.16625445,0.12555644 0 0 1 -0.17225,0.12077 0.16625445,0.12555644 0 0 1 -0.16003,-0.13 0.16625445,0.12555644 0 0 1 0.17203,-0.12095 0.16625445,0.12555644 0 0 1 0.16027,0.12984" /><path
           style="fill:#000000;fill-opacity:1;stroke:#000000;stroke-width:0.123185;stroke-opacity:1"
           d="m 149.60406,102.09585 c 0.94503,0.0846 0.36945,0.25112 0.36945,0.25112"
           id="path261194"
           sodipodi:nodetypes="cc" /><path
           style="fill:#b3522d;fill-opacity:1;stroke:none;stroke-width:0.123185;stroke-opacity:1"
           d="m 143.30973,114.48719 6.38017,-4.40167 1.15244,9.57428 c 1.75748,2.63931 2.6621,4.17014 5.72035,6.04105 3.4098,0.36284 3.98107,1.22631 4.87662,2.3986 0.30345,1.26726 1.53356,3.24405 -0.99794,2.95821 -1.29734,-0.80753 -1.26097,-1.11903 -2.44855,-1.85437 -1.29087,0.1466 -0.91807,0.6247 -1.19399,1.44794 -0.90355,-0.0517 -0.93624,-1.29746 -1.17763,-2.32346 -12.42003,-6.25598 -7.02965,-3.56928 -9.34824,-7.34525 l -0.34888,-4.17481 z"
           id="path261196"
           sodipodi:nodetypes="cccccccccccc"
           inkscape:label="lefthand" /><path
           style="fill:#120f20;fill-opacity:1;stroke:none;stroke-width:0.123185;stroke-opacity:1"
           d="m 130.76378,131.99468 c 3.10313,5.8156 4.58341,13.6631 9.31025,17.44574 l 3.10341,16.07122 c 4.6015,0.8873 8.78908,1.10827 11.82254,-0.52866 -2.60954,-10.96085 -3.02307,-25.09671 -7.93249,-36.05756 z"
           id="path261197"
           sodipodi:nodetypes="cccccc" /><path
           style="fill:#353341;fill-opacity:1;stroke:none;stroke-width:0.123185;stroke-opacity:1"
           d="m 128.79702,129.54767 c 0.47828,4.4606 0.88463,8.99883 2.75836,11.9532 -6.3223,6.71951 -2.10522,17.10347 -5.26343,23.52503 6.46099,4.42501 9.66176,2.53233 11.54731,1.22123 3.50182,-5.22255 1.52413,-14.2339 4.13913,-20.74253 l -0.68443,-20.68687 z"
           id="path261198"
           sodipodi:nodetypes="ccccccc" /><path
           style="fill:#f8a701;fill-opacity:1;stroke:none;stroke-width:0.123185;stroke-opacity:1"
           d="m 141.44749,103.09552 c -7.87839,0.12183 -11.40025,8.1348 -12.99866,11.53661 2.18314,0.99652 2.43269,1.95851 5.76746,0.65379 -3.00016,4.88218 -4.19019,5.45553 -4.39254,8.24255 l -1.80418,8.83701 c 7.57383,0.93265 14.1855,0.95811 19.27978,-0.0748 l 0.0145,-23.76359 c 0.94304,-2.21368 -3.77142,-3.67069 -5.86633,-5.43155 z"
           id="path261199"
           sodipodi:nodetypes="ccccccccc"
           inkscape:label="shirt" /><path
           style="fill:#f8a701;fill-opacity:1;stroke:#dc9202;stroke-width:0.123185;stroke-opacity:1"
           d="m 137.2363,115.1394 c -3.68868,5.99089 -3.80694,11.63345 -4.58123,17.34001"
           id="path261200"
           sodipodi:nodetypes="cc" /><path
           style="fill:#ae5031;fill-opacity:1;stroke:none;stroke-width:0.123185;stroke-opacity:1"
           d="m 130.19331,114.08155 5.98977,0.39871 c -0.48976,1.97057 -1.2702,5.27386 -0.23722,5.5416 3.12714,2.509 8.74997,5.49932 10.30668,8.11272 1.75192,0.15885 3.64661,0.23794 4.57455,0.85708 0.7447,1.01813 1.63081,1.98706 1.94486,3.15501 -0.10665,0.21031 -0.23173,0.38116 -0.47332,0.3007 -0.35972,-0.5126 -0.77145,-0.72804 -1.07657,-1.55261 l -0.5301,0.50184 c 0.56441,0.75807 0.56078,1.53091 0.82767,2.29671 -0.21565,0.65235 -0.39446,0.63699 -0.56608,0.49168 -0.22984,-0.69269 -0.58329,-1.39109 -0.61841,-2.07476 l -0.66739,0.30021 c 0.57514,0.55961 0.55847,1.26069 0.78312,1.9041 -0.25385,0.3664 -0.45487,0.48512 -0.59545,0.32052 l -0.60323,-1.85331 -0.25748,0.36164 c -0.029,0.38235 0.0276,0.76493 -0.16838,1.14686 -0.19796,0.28843 -0.25172,0.0661 -0.36637,0.0595 l -1.57091,-3.10373 c -2.94127,-1.40044 -5.82298,-2.34647 -8.82749,-4.22935 -2.16036,-0.95415 -6.78253,-4.81 -8.48518,-5.90204 z"
           id="path261201"
           sodipodi:nodetypes="ccccccccccccccccccccccc"
           inkscape:label="handright" /><path
           style="fill:#d27d17;fill-opacity:1;stroke:none;stroke-width:0.123185;stroke-opacity:1"
           d="m 147.27303,107.8281 c 3.40562,1.44549 2.49889,3.62994 3.25831,5.66348 l -3.45358,0.70488 z"
           id="path261202"
           sodipodi:nodetypes="cccc" /><path
           style="fill:#f7a701;fill-opacity:1;stroke:#dc9202;stroke-width:0.123185;stroke-opacity:1"
           d="m 130.40382,112.43136 c 2.0827,1.87263 5.61888,1.20802 7.65388,1.22526 1.51078,-1.32538 1.41573,-3.01552 1.37479,-4.93182 -0.79613,-2.84126 -2.31182,-3.52155 -4.44095,-2.35953 -2.20486,1.19664 -2.44028,2.78705 -3.21128,4.27036 z"
           id="path261203"
           sodipodi:nodetypes="cccccc" /><path
           style="fill:#fffbf3;fill-opacity:1;stroke:none;stroke-width:0.123185;stroke-opacity:1"
           id="path261204"
           sodipodi:type="arc"
           sodipodi:cx="143.95544"
           sodipodi:cy="100.74983"
           sodipodi:rx="0.26124364"
           sodipodi:ry="0.13083637"
           sodipodi:start="0.037475209"
           sodipodi:end="0.034745446"
           sodipodi:open="true"
           sodipodi:arc-type="arc"
           d="m 144.2165,100.75473 a 0.26124364,0.13083637 0 0 1 -0.27067,0.12585 0.26124364,0.13083637 0 0 1 -0.25146,-0.13547 0.26124364,0.13083637 0 0 1 0.27033,-0.12603 0.26124364,0.13083637 0 0 1 0.25183,0.1353" /><g
           id="g261209"
           transform="rotate(-29.592836,136.48151,153.26564)"
           style="stroke-width:1.23185"><path
             style="fill:#5c7cc2;fill-opacity:1;stroke:none;stroke-width:0.739108;stroke-dasharray:none;stroke-opacity:1"
             d="m 122.54361,164.66721 c -2.34756,0.50695 -2.88075,2.86836 -3.95316,4.67862 1.20875,1.55448 1.82194,1.91546 3.61144,3.26218 2.38853,0.53144 2.16071,2.02207 5.87409,3.41623 1.83009,0.6315 4.92045,1.32429 3.88563,-2.77662 -0.72255,-0.48917 -1.94535,-1.5688 -4.2087,-1.57568 -0.0637,-0.76826 -0.12712,-1.53648 -1.44087,-2.51113 0.68659,-0.90893 0.4179,-2.25277 0.0369,-3.64774 -2.21142,2.13256 -3.46584,1.81468 -3.80537,-0.84586 z"
             id="path261189"
             sodipodi:nodetypes="cccccccccc" /><path
             style="fill:#645f7f;fill-opacity:1;stroke:none;stroke-width:0.739108;stroke-dasharray:none;stroke-opacity:1"
             d="m 122.41337,157.67748 9.73385,6.35039 c -0.71001,2.28901 -1.22424,2.53755 -3.03489,2.46417 -2.5572,0.60157 -9.14098,-3.27729 -8.45983,-4.10897 z"
             id="path261205"
             sodipodi:nodetypes="ccccc" /><path
             style="fill:#f6a91a;fill-opacity:1;stroke:none;stroke-width:0.739108;stroke-dasharray:none;stroke-opacity:1"
             d="m 122.60591,164.569 c -0.25075,0.89871 -0.26592,1.79743 0.0739,2.69616 1.18315,0.78752 2.01236,0.24559 2.80786,-0.42293 v -0.74013 z"
             id="path261207"
             sodipodi:nodetypes="ccccc" /></g><g
           id="g261208"
           transform="translate(-2.9104166)"
           style="stroke-width:1.23185"><path
             style="fill:#faa60a;fill-opacity:1;stroke:none;stroke-width:0.739108;stroke-dasharray:none;stroke-opacity:1"
             d="m 150.32977,166.42032 c -0.069,0.7986 -0.30098,1.66198 0.83599,1.98124 1.42566,0.77982 2.94243,2.21144 3.9709,0.14952 0.70436,-1.53497 -0.27843,-1.74217 -0.88823,-2.2429 z"
             id="path261195"
             sodipodi:nodetypes="ccccc" /><path
             style="fill:#353342;fill-opacity:1;stroke:none;stroke-width:0.739108;stroke-dasharray:none;stroke-opacity:1"
             d="m 145.58597,163.30023 11.3053,-0.52867 c 0.54714,0.93395 1.46631,2.90629 0.59113,2.80188 -3.17126,1.86811 -8.57243,0.9906 -11.3053,0.42293 -0.82308,-0.57877 -0.723,-1.62934 -0.59113,-2.69614 z"
             id="path261206"
             sodipodi:nodetypes="ccccc" /><path
             style="fill:#5f7dc6;fill-opacity:1;stroke:none;stroke-width:0.739108;stroke-dasharray:none;stroke-opacity:1"
             d="m 150.40353,167.33094 c -0.23591,2.04697 -1.52571,4.89356 -0.48232,7.08505 4.6934,0.63159 11.21684,0.0665 15.88524,-0.0513 0.67137,-0.87627 -0.0271,-1.61722 -0.70294,-2.3604 -1.54133,-0.62559 -3.12388,-0.69585 -4.70212,-0.8239 -0.55183,-0.99258 -1.71994,-0.96557 -2.59956,-1.41584 l -0.9696,-1.62205 c -0.50256,-0.65936 -1.27494,-0.57163 -1.92758,-0.81543 -0.76428,1.27606 -1.84164,2.42566 -5.06921,-0.56409 z"
             id="path261208"
             sodipodi:nodetypes="cccccccccc" /></g></g><g
         id="g261254"><path
           style="display:inline;fill:#b15333;fill-opacity:1;stroke-width:0.1"
           d="m 159.52582,106.97328 c 0.34692,0.47355 0.44117,0.94709 0.57986,1.42063 h -0.75383 c -0.44455,0.99066 -0.88911,1.45023 -1.33368,2.17533 -0.52186,0.0858 -1.04374,0.0343 -1.56562,-0.0888 -0.19259,0.64235 -0.83998,1.21505 -1.27569,1.82018 -1.0935,-0.54992 -2.01445,-1.19421 -2.72535,-1.95337 0.33546,-0.29069 0.51447,-0.70118 1.04375,-0.84349 l -0.17396,-0.97668 c -0.29084,-2.29381 0.47486,-2.67181 2.26146,-1.19865 l 0.63785,-1.02107 c 1.11758,-0.0693 2.24042,-0.23504 3.30521,0.66588 z"
           id="path261211"
           sodipodi:nodetypes="cccccccccccc" /><path
           style="fill:#000000;fill-opacity:1;stroke-width:0.1"
           d="m 152.89625,108.37983 c -0.75242,-0.53135 -0.90985,-1.2449 -0.69704,-2.07184 l 3.64921,-0.0942 c 0.0878,0.64399 -0.015,1.12612 -0.24602,1.00453 -2.79292,-1.85737 -1.71403,0.43337 -2.70615,1.16149 z"
           id="path261212"
           sodipodi:nodetypes="ccccc" /><path
           style="fill:#647ec3;fill-opacity:1;stroke-width:0.1"
           d="m 150.49761,106.07255 c 4.6811,0.61878 11.72927,1.07625 14.04331,0.0314 0.0173,-0.63797 -2.14793,-0.53878 -3.89523,-0.58075 -0.85331,-4.19431 -9.08891,-4.11738 -8.7335,-0.12556 z"
           id="path261213"
           sodipodi:nodetypes="ccccc" /><path
           style="fill:#000000;fill-opacity:1;stroke-width:0.1"
           id="path261214"
           sodipodi:type="arc"
           sodipodi:cx="158.11014"
           sodipodi:cy="107.484"
           sodipodi:rx="0.13046876"
           sodipodi:ry="0.10543695"
           sodipodi:start="0.037475209"
           sodipodi:end="0.034745446"
           sodipodi:open="true"
           sodipodi:arc-type="arc"
           d="m 158.24052,107.48795 a 0.13046876,0.10543695 0 0 1 -0.13518,0.10142 0.13046876,0.10543695 0 0 1 -0.12559,-0.10918 0.13046876,0.10543695 0 0 1 0.13501,-0.10156 0.13046876,0.10543695 0 0 1 0.12577,0.10903" /><path
           style="fill:#000000;fill-opacity:1;stroke:#000000;stroke-width:0.1;stroke-opacity:1"
           d="m 158.31308,109.10994 c 0.74162,0.071 0.28993,0.21088 0.28993,0.21088"
           id="path261215"
           sodipodi:nodetypes="cc" /><path
           style="fill:#120f20;fill-opacity:1;stroke:none;stroke-width:0.1;stroke-opacity:1"
           d="m 144.70462,131.21693 c 1.29362,5.30161 0.96756,11.98527 3.88171,15.90414 l -0.61273,13.70021 c 3.35648,1.52604 6.52008,2.4345 9.14585,1.62099 0.0406,-9.42943 0.72927,-19.86665 -0.99014,-29.69563 z"
           id="path261217"
           sodipodi:nodetypes="cccccc" /><path
           style="fill:#353341;fill-opacity:1;stroke:none;stroke-width:0.1;stroke-opacity:1"
           d="m 142.45083,134.3369 c 0.0399,3.70099 0.63321,5.92809 1.11856,10.03187 -3.92907,4.6049 -0.51994,11.39957 -2.85147,15.05017 4.14077,4.13451 7.16708,2.84868 8.54339,1.91758 2.73589,-4.01901 -0.88673,-7.11311 1.32459,-12.25713 l -0.21902,-15.94788 z"
           id="path261218"
           sodipodi:nodetypes="ccccccc" /><path
           style="fill:#f8a701;fill-opacity:1;stroke:none;stroke-width:0.1;stroke-opacity:1"
           d="m 151.91219,109.94942 c -4.92384,1.34568 -7.39714,4.55173 -8.6515,7.40843 1.71323,0.83683 3.36148,1.74828 5.49432,2.10324 -2.7417,2.3384 -5.32166,4.78856 -6.64239,7.43982 l -0.73804,7.62817 c 5.94359,0.7832 11.13212,0.80458 15.12988,-0.0628 l 0.205,-20.05927 c 0.74006,-1.85895 -3.15328,-2.97887 -4.79727,-4.45757 z"
           id="path261219"
           sodipodi:nodetypes="cccccccc" /><path
           style="fill:#ae5031;fill-opacity:1;stroke:none;stroke-width:0.1;stroke-opacity:1"
           d="m 143.70468,117.11209 5.45332,2.07185 c -2.07732,2.03048 -3.93501,4.81761 -6.23236,6.08998 -1.22817,3.0997 -1.14634,4.64374 -2.78816,6.49808 0.25354,1.45209 0.59777,3.00137 0.32801,3.89256 -0.61015,0.83413 -1.153,1.77132 -1.96811,2.2916 -0.18158,-0.0382 -0.33728,-0.10032 -0.32802,-0.31392 0.31044,-0.40767 0.38537,-0.78957 0.94306,-1.22428 l -0.49203,-0.31392 c -0.45218,0.6291 -1.03664,0.80248 -1.55809,1.19289 -0.53867,-0.0254 -0.56518,-0.17346 -0.49203,-0.34531 0.47413,-0.34378 0.92624,-0.78877 1.43508,-0.97314 l -0.36902,-0.47087 c -0.30002,0.59248 -0.83305,0.73897 -1.27107,1.06732 -0.33085,-0.12157 -0.46337,-0.25694 -0.36903,-0.4081 l 1.27108,-0.91035 -0.32802,-0.12558 c -0.29495,0.0638 -0.57183,0.1968 -0.90205,0.12558 -0.26005,-0.0942 -0.10358,-0.18836 -0.12301,-0.28253 l 2.00912,-1.97768 c 0.43056,-2.69656 0.53064,-5.24131 1.31207,-8.09904 0.54178,-2.80241 2.95395,-5.19568 4.46926,-7.78514 z"
           id="path261220"
           sodipodi:nodetypes="cccccccccccccccccccccc" /><path
           style="fill:#d27d17;fill-opacity:1;stroke:none;stroke-width:0.1;stroke-opacity:1"
           d="m 156.58063,113.71641 2.46014,4.23787 -2.41914,1.16149 z"
           id="path261221" /><path
           style="fill:#b3522d;fill-opacity:1;stroke:none;stroke-width:0.1;stroke-opacity:1"
           d="m 156.5736,118.91981 1.43508,-0.53367 4.26425,8.00488 c 1.92384,2.03265 2.93836,3.83324 4.26425,5.71329 1.58881,0.83524 3.59716,1.62459 2.99316,2.69968 -0.14752,0.45318 -0.22736,0.98409 -1.43508,0.21974 -0.18006,-1.1712 -0.72216,-1.69563 -1.55808,-1.69516 l 0.205,0.87898 c -0.58076,-0.0948 -1.08628,-0.65044 -1.55808,-1.41263 -2.48125,-1.14159 -4.74293,-2.87149 -7.01141,-4.58318 l -1.59909,-3.35891 z"
           id="path261222"
           sodipodi:nodetypes="cccccccccccc" /><path
           style="fill:#f7a701;fill-opacity:1;stroke:#dc9202;stroke-width:0.1;stroke-opacity:1"
           d="m 144.43712,116.40855 c 2.21273,1.45242 4.39659,2.08533 6.55863,2.0987 1.6051,-1.02797 1.50411,-2.53025 1.46061,-4.01654 -0.84583,-2.20369 -2.45613,-2.73133 -4.71819,-1.83006 -2.34251,0.92812 -2.59263,2.16164 -3.41177,3.31211 z"
           id="path261223"
           sodipodi:nodetypes="cccccc" /><path
           style="fill:#f8a701;fill-opacity:1;stroke:#dc9202;stroke-width:0.1;stroke-opacity:1"
           d="m 148.60745,120.06335 c -2.89471,5.0309 -2.98752,9.76928 -3.59514,14.56141"
           id="path261224"
           sodipodi:nodetypes="cc" /><path
           style="fill:#fffbf3;fill-opacity:1;stroke:none;stroke-width:0.1;stroke-opacity:1"
           id="path261225"
           sodipodi:type="arc"
           sodipodi:cx="153.88031"
           sodipodi:cy="107.9796"
           sodipodi:rx="0.20501184"
           sodipodi:ry="0.10987081"
           sodipodi:start="0.037475209"
           sodipodi:end="0.034745446"
           sodipodi:open="true"
           sodipodi:arc-type="arc"
           d="m 154.08518,107.98372 a 0.20501184,0.10987081 0 0 1 -0.21241,0.10568 0.20501184,0.10987081 0 0 1 -0.19734,-0.11377 0.20501184,0.10987081 0 0 1 0.21214,-0.10583 0.20501184,0.10987081 0 0 1 0.19763,0.11362" /><g
           id="g261252"
           transform="rotate(-10.997288,149.83965,133.57304)"><path
             style="fill:#5c7cc2;fill-opacity:1;stroke:none;stroke-width:0.6;stroke-dasharray:none;stroke-opacity:1"
             d="m 136.62573,162.4826 c -1.84227,0.42572 -2.18274,2.42657 -3.02432,3.94675 1.00479,1.0149 0.34984,1.37292 2.84517,1.89767 1.87441,0.44628 5.40196,2.04072 7.89729,1.58544 0.17629,-0.23534 0.83329,-0.29687 0.623,-0.76898 -0.56702,-0.41079 0.72717,-1.53234 -1.04899,-2.5918 -0.82656,-1.08331 -1.48413,-0.0199 -2.51506,-0.83837 -0.21384,-1.96751 -1.7055,-1.64338 -2.09187,-3.27307 -2.93964,0.13503 -1.20924,2.8646 -1.47569,0.63037 z"
             id="path261210"
             sodipodi:nodetypes="cccccccccc" /><path
             style="fill:#645f7f;fill-opacity:1;stroke:none;stroke-width:0.6;stroke-dasharray:none;stroke-opacity:1"
             d="m 136.22572,157.41361 8.38805,3.7042 c -0.57568,1.92221 -1.92102,2.13348 -3.38911,2.07186 -2.07342,0.50517 -6.48323,-2.75468 -5.93094,-3.45309 z"
             id="path261226"
             sodipodi:nodetypes="ccccc" /><path
             style="fill:#f6a91a;fill-opacity:1;stroke:none;stroke-width:0.6;stroke-dasharray:none;stroke-opacity:1"
             d="m 136.14777,160.74433 c -0.19678,0.7547 -0.89515,1.15512 -0.62843,1.90984 1.00374,1.63975 3.97401,1.26549 4.59828,0.7041 l 0.37322,-0.7255 z"
             id="path261228"
             sodipodi:nodetypes="ccccc" /></g><path
           style="fill:#5f7dc6;fill-opacity:1;stroke:none;stroke-width:0.6;stroke-dasharray:none;stroke-opacity:1"
           d="m 151.48026,164.19697 c -0.18513,1.71896 -0.35054,4.11519 0.46828,5.95551 3.68317,0.53038 9.61149,0.35112 13.27504,0.25221 0.52686,-0.73586 -0.0213,-1.35807 -0.55164,-1.98216 -1.20956,-0.52535 -2.45147,-0.58435 -3.69,-0.69188 -0.43305,-0.83353 -1.34973,-0.81085 -2.04002,-1.18896 l -0.5351,-0.0827 c -0.39439,-0.5537 -1.22632,-2.13583 -1.73847,-2.34056 -2.33083,0.54473 1.25849,0.33138 -1.87647,0.68037 z"
           id="path261229"
           sodipodi:nodetypes="cccccccccc" /><g
           id="g261253"
           transform="matrix(0.78475346,0,0,0.83975743,29.446814,-109.01279)"
           style="stroke-width:1.23185"><path
             style="fill:#faa60a;fill-opacity:1;stroke:none;stroke-width:0.6;stroke-dasharray:none;stroke-opacity:1"
             d="m 156.90319,162.54849 c -0.0349,0.71873 -0.91518,1.86734 1.94238,1.54909 1.1188,0.65486 3.09633,0.029 3.09633,0.029 0.033,-1.37563 0.34766,-1.20534 -0.13088,-1.62583 z"
             id="path261216"
             sodipodi:nodetypes="ccccc"
             transform="matrix(1.2742856,0,0,1.1908201,-44.368156,130.33045)" /></g><path
           style="fill:#353342;fill-opacity:1;stroke:none;stroke-width:0.6;stroke-dasharray:none;stroke-opacity:1"
           d="m 148.22595,161.19983 9.35429,-0.44396 c 0.45272,0.7843 1.21326,2.44058 0.48911,2.3529 -2.62398,1.56876 -8.91233,-0.29436 -9.35428,0.35516 -0.68104,-0.48602 -0.59823,-1.36825 -0.48912,-2.2641 z"
           id="path261227"
           sodipodi:nodetypes="ccccc" /></g></g></g></svg>
