<?xml version="1.0" encoding="UTF-8" standalone="no"?>
<!-- Created with Inkscape (http://www.inkscape.org/) -->

<svg
   width="350mm"
   height="100mm"
   viewBox="0 0 350 100"
   version="1.1"
   id="svg1"
   xml:space="preserve"
   inkscape:version="1.3.2 (091e20e, 2023-11-25, custom)"
   sodipodi:docname="Patrick.svg"
   inkscape:export-filename="Patrick.png"
   inkscape:export-xdpi="96"
   inkscape:export-ydpi="96"
   xmlns:inkscape="http://www.inkscape.org/namespaces/inkscape"
   xmlns:sodipodi="http://sodipodi.sourceforge.net/DTD/sodipodi-0.dtd"
   xmlns="http://www.w3.org/2000/svg"
   xmlns:svg="http://www.w3.org/2000/svg"><sodipodi:namedview
     id="namedview1"
     pagecolor="#ffffff"
     bordercolor="#000000"
     borderopacity="0.25"
     inkscape:showpageshadow="2"
     inkscape:pageopacity="0.0"
     inkscape:pagecheckerboard="0"
     inkscape:deskcolor="#d1d1d1"
     inkscape:document-units="mm"
     inkscape:zoom="0.69219276"
     inkscape:cx="347.44657"
     inkscape:cy="75.845925"
     inkscape:window-width="1920"
     inkscape:window-height="991"
     inkscape:window-x="-9"
     inkscape:window-y="-9"
     inkscape:window-maximized="1"
     inkscape:current-layer="layer1"
     showgrid="true"><inkscape:grid
       id="grid17"
       units="mm"
       originx="0"
       originy="0"
       spacingx="0.99999999"
       spacingy="0.99999999"
       empcolor="#0099e5"
       empopacity="0.30196078"
       color="#0099e5"
       opacity="0.14901961"
       empspacing="5"
       dotted="false"
       gridanglex="30"
       gridanglez="30"
       visible="true" /></sodipodi:namedview><defs
     id="defs1" /><g
     inkscape:label="Layer 1"
     inkscape:groupmode="layer"
     id="layer1"><path
       style="fill:#ff8c9e;fill-opacity:1;stroke:#000000;stroke-width:0.1;stroke-linejoin:round;stroke-dasharray:none;paint-order:markers fill stroke"
       d="m 26.311344,10.893775 c -2.075566,0.197383 -3.7512,1.515801 -2.667935,10.567571 0.05799,10.114854 -1.543067,19.864632 -6.803232,28.809211 -1.889961,3.397333 -4.204893,6.147746 -4.441163,10.826156 -0.115403,1.236415 -0.618176,7.40585 2.573609,11.944441 1.960517,1.818284 4.633252,3.323932 7.236771,4.120095 l 0.100047,-2.107222 2.024513,0.08684 c 3.691024,0.901798 4.390239,-0.474169 9.649635,-1.386991 l 2.599302,1.551756 0.133397,2.012871 c 2.370942,0.566464 5.015226,-0.928107 7.070026,-2.641896 1.664656,-1.709064 3.0483,-3.842158 3.38948,-7.548262 1.719349,-7.161956 -2.761526,-13.471631 -5.657223,-18.115837 -0.487155,-1.970316 0.177937,-4.039694 0.400188,-5.787001 L 40.551444,43.13116 C 40.519421,37.063067 38.619082,30.633359 36.182703,24.732263 34.239952,20.137812 32.387373,12.247165 26.311344,10.893778 Z"
       id="path1"
       sodipodi:nodetypes="ccccccccccccccccccc" /><path
       style="fill:#000000;fill-opacity:1;stroke:#000000;stroke-width:0.1;stroke-linejoin:round;stroke-dasharray:none;paint-order:markers fill stroke"
       d="m 32.695081,27.664837 0.49521,1.712425 2.806191,-2.001536 -0.518794,-1.534511 z"
       id="path2" /><path
       style="fill:#000000;fill-opacity:1;stroke:#000000;stroke-width:0.1;stroke-linejoin:round;stroke-dasharray:none;paint-order:markers fill stroke"
       d="m 38.156369,28.428556 0.49417,-1.054402 -1.979737,-1.689149 0.745818,2.160915 z"
       id="path3"
       sodipodi:nodetypes="ccccc" /><path
       style="fill:#ff8c9e;fill-opacity:1;stroke:#000000;stroke-width:0.1;stroke-linejoin:round;stroke-dasharray:none;paint-order:markers fill stroke"
       d="m 24.063765,79.175286 c 0.110768,1.237077 0.425805,3.143414 1.15142,4.38049 0.687731,0.994281 1.031082,1.78525 1.963237,2.207351 1.489597,0.784004 2.507335,0.261561 3.796836,-0.26158 1.288739,-0.963663 1.369806,-1.726886 1.798408,-2.525893 0.420975,-1.159352 0.455713,-2.455827 0.628618,-3.518472 -2.924972,0.324602 -6.299039,0.384548 -8.671255,-0.197427 z"
       id="path4"
       sodipodi:nodetypes="cccccccc" /><path
       id="path6"
       style="fill:#ffffff;fill-opacity:1;stroke:#000000;stroke-width:0.1;stroke-linejoin:round;paint-order:markers fill stroke"
       d="m 40.518096,35.928856 c 0.389322,3.226484 -0.846816,4.902421 -2.61791,5.000725 -1.697448,0.09422 -4.738855,-1.915185 -4.752259,-4.937823 -0.01242,-2.788032 0.51449,-4.437123 2.351118,-5.755552 0.741382,-0.532204 2.247786,0.0861 3.30843,1.133921 1.071447,1.058492 1.533182,3.088209 1.710621,4.558729 z"
       sodipodi:nodetypes="ssssss" /><path
       style="fill:#ffffff;fill-opacity:1;stroke:#000000;stroke-width:0.1;stroke-linejoin:round;stroke-dasharray:none;paint-order:markers fill stroke"
       d="m 38.317048,30.377734 c 1.165875,0.26072 1.995112,1.13646 2.684608,2.091499 1.036964,1.342316 1.076584,2.575816 1.200571,3.821308 0.07485,0.942059 -0.06583,1.754948 -0.500238,2.626169 -1.055887,1.539857 -1.659469,1.452559 -2.551213,1.792713 0.811092,-0.589273 1.155117,-1.605528 1.30634,-2.517998 0.23333,-1.418657 0.0056,-2.779373 -0.272513,-4.055284 -0.120943,-1.666827 -1.714501,-2.91908 -1.867555,-3.758407 z"
       id="path7"
       sodipodi:nodetypes="cccccccc" /><path
       style="fill:none;fill-opacity:1;stroke:#000000;stroke-width:0.1;stroke-linejoin:round;stroke-dasharray:none;paint-order:markers fill stroke"
       d="m 32.295644,40.910335 c 2.191396,2.450076 6.103094,2.793338 9.589765,2.433347"
       id="path8"
       sodipodi:nodetypes="cc" /><path
       style="fill:none;fill-opacity:1;stroke:#000000;stroke-width:0.1;stroke-linejoin:round;stroke-dasharray:none;paint-order:markers fill stroke"
       d="m 32.064276,41.975817 c -0.08299,-1.489518 0.662613,-1.402708 1.179071,-1.512271"
       id="path9"
       sodipodi:nodetypes="cc" /><path
       style="display:inline;fill:#96d73b;fill-opacity:1;stroke:#000000;stroke-width:0.1;stroke-linejoin:round;stroke-dasharray:none;paint-order:markers fill stroke"
       d="m 12.371387,62.9139 c 3.085975,1.409693 8.788881,3.061731 9.704611,3.176561 2.934729,0.819803 10.104803,1.32447 13.723189,1.320944 2.941574,-0.08749 7.618858,-0.199237 11.388742,-0.408862 l -0.21677,1.651184 C 41.589831,68.813038 36.23463,69.194101 30.813481,69.015414 27.167304,68.669171 23.521127,68.358443 19.87495,67.442859 17.233145,66.702263 14.713095,65.751154 12.338036,64.549356 Z"
       id="path5"
       sodipodi:nodetypes="ccccccccc" /><path
       style="fill:none;fill-opacity:1;stroke:#000000;stroke-width:0.1;stroke-linejoin:round;stroke-dasharray:none;paint-order:markers fill stroke"
       d="m 46.552871,64.871165 c -0.673773,-0.439935 -1.95268,0.555511 -0.180566,1.089727"
       id="path10"
       sodipodi:nodetypes="cc" /><path
       style="display:inline;fill:#ff8c9e;fill-opacity:1;stroke:#000000;stroke-width:0.1;stroke-linejoin:round;stroke-dasharray:none;paint-order:markers fill stroke"
       d="m 21.742506,50.396361 c -1.118045,3.832169 -1.77481,7.898582 -0.600285,12.894951 0.766552,1.8661 1.151259,3.732199 2.734633,5.598299 2.457131,2.201361 4.590531,2.494561 6.336343,0.503216 3.607994,-5.993326 2.11926,-12.939683 2.334445,-17.046498"
       id="path11"
       sodipodi:nodetypes="ccccc" /><path
       id="path12"
       style="fill:#000000;fill-opacity:1;stroke:#000000;stroke-width:0.1;stroke-linejoin:round;paint-order:markers fill stroke"
       d="m 40.500534,35.837626 c 0.09,0.765061 0.07493,1.336709 -0.306559,1.435982 -0.434756,0.11314 -1.263919,-0.572506 -1.273398,-1.509153 -0.0095,-0.941955 0.65224,-1.518739 1.049375,-1.463421 0.37174,0.05178 0.443006,0.792077 0.530582,1.536592 z"
       sodipodi:nodetypes="sssss" /><path
       id="path13"
       style="fill:#000000;fill-opacity:1;stroke:#000000;stroke-width:0.0999998;stroke-linejoin:round;paint-order:markers fill stroke"
       d="m 42.124993,35.829513 c 0.07615,0.761033 0.0634,1.329673 -0.259391,1.428423 -0.367863,0.112534 -1.069449,-0.569494 -1.077469,-1.50121 -0.0081,-0.936997 0.551884,-1.510744 0.887915,-1.455718 0.314543,0.05151 0.374844,0.787908 0.448945,1.528505 z"
       sodipodi:nodetypes="sssss" /><path
       style="fill:#96d73b;fill-opacity:1;stroke:#000000;stroke-width:0.1;stroke-linejoin:round;stroke-dasharray:none;paint-order:markers fill stroke"
       d="m 12.455305,64.506288 c 0.08101,1.318794 0.15328,2.599266 0.530583,3.947474 0.516981,1.740956 0.996261,3.559416 2.129234,4.968411 2.060058,2.686473 5.5364,4.619564 7.839706,4.885331 l 0.803825,-2.80084 0.02131,3.533913 c 4.728087,0.99027 5.770019,0.885791 10.090181,0.295612 l 0.124782,-3.574224 0.230869,3.141531 c 1.034229,0.228087 6.315649,-1.7514 6.900492,-2.210568 0.757228,-0.362049 2.708121,-1.970756 3.100119,-2.525741 1.729461,-1.512746 2.535805,-4.074507 2.723656,-5.481983 -2.598258,0.05958 -10.899226,0.325717 -16.34884,0.196666 l -1.226234,1.234278 c -0.368995,0.146117 -1.488478,1.350066 -4.692704,-0.689416 -0.404348,-0.197953 -0.900769,-0.830064 -1.391306,-1.434435 -2.242944,-0.383579 -4.467809,-0.903563 -6.666637,-1.619979 -1.418817,-0.448103 -2.750216,-1.220817 -4.169033,-1.86603 z"
       id="path14"
       sodipodi:nodetypes="ccccccccccccccccccc" /><path
       id="path15"
       style="fill:#6117b0;fill-opacity:1;stroke:#000000;stroke-width:0.0249999;stroke-linejoin:round;stroke-dasharray:none;paint-order:markers fill stroke"
       d="m 14.631705,65.59394 c 0.272376,0.160657 -0.338585,1.294418 -0.95505,1.467792 -0.397625,0.111823 -1.117865,-0.129373 -1.16728,-0.778375 -0.137055,-1.800054 -0.253418,-1.903611 -0.01173,-1.779143 0.411274,0.211803 1.546939,0.743423 2.039795,1.034126 z"
       sodipodi:nodetypes="ssssss" /><path
       style="fill:#6117b0;fill-opacity:1;stroke:#000000;stroke-width:0.0249999;stroke-linejoin:round;stroke-dasharray:none;paint-order:markers fill stroke"
       d="m 42.481374,68.785281 c -0.571735,0.649403 -0.330526,1.322764 0.09432,2.001538 1.004175,0.570111 1.625164,-0.07943 2.405303,-0.222395 -0.784191,0.358971 -0.936024,1.168042 -0.554161,1.623468 0.385788,0.309902 0.984963,0.540578 1.308768,0.03336 0.693099,-1.171925 0.999944,-2.368132 1.226237,-3.569406 z"
       id="path17"
       sodipodi:nodetypes="ccccccc" /><path
       style="fill:#ff8c9e;fill-opacity:1;stroke:#000000;stroke-width:0.1;stroke-linejoin:round;stroke-dasharray:none;paint-order:markers fill stroke"
       d="m 98.600527,10.136816 c -2.075566,0.197383 -3.7512,1.515801 -2.667935,10.567571 0.05799,10.114854 -1.543067,19.864632 -6.803232,28.809211 -1.889961,3.397333 -4.204893,6.147746 -4.441163,10.826156 -0.115403,1.236415 -0.618176,7.40585 2.573609,11.944441 2.085316,1.533028 5.659876,-1.928191 7.000272,1.755109 l -2.569008,-4.235708 1.585302,0.796338 c 3.691024,0.901798 9.086428,-0.153207 14.345818,-1.066029 l 1.24788,5.014771 3.71467,-5.149657 c 2.37094,0.566464 1.43396,6.234421 3.48876,4.520632 1.66465,-1.709064 3.0483,-3.842158 3.38948,-7.548262 1.71935,-7.161956 -2.76153,-13.471631 -5.65723,-18.115837 -0.48715,-1.970316 0.17794,-4.039694 0.40019,-5.787001 l -1.36731,-0.09435 c -0.032,-6.068093 -1.93236,-12.497801 -4.36874,-18.398897 -1.94275,-4.594451 -3.79533,-12.485098 -9.871363,-13.838485 z"
       id="path1-5"
       sodipodi:nodetypes="ccccccccccccccccccc" /><path
       style="fill:#000000;fill-opacity:1;stroke:#000000;stroke-width:0.1;stroke-linejoin:round;stroke-dasharray:none;paint-order:markers fill stroke"
       d="m 104.98426,26.907878 0.49521,1.712425 2.8062,-2.001536 -0.5188,-1.534511 z"
       id="path2-2" /><path
       style="fill:#000000;fill-opacity:1;stroke:#000000;stroke-width:0.1;stroke-linejoin:round;stroke-dasharray:none;paint-order:markers fill stroke"
       d="m 110.44555,27.671597 0.49417,-1.054402 -1.97973,-1.689149 0.74581,2.160915 z"
       id="path3-3"
       sodipodi:nodetypes="ccccc" /><path
       style="fill:#ff8c9e;fill-opacity:1;stroke:#000000;stroke-width:0.0999998;stroke-linejoin:round;stroke-dasharray:none;paint-order:markers fill stroke"
       d="m 104.58237,79.710266 c 0.52699,1.049319 1.58146,2.966741 2.57826,3.7685 0.81653,0.8144 1.82592,1.591721 2.68912,1.589654 1.74761,0.342467 3.13099,-0.622726 3.73748,-1.749611 0.8134,-1.246321 0.61512,-2.73266 0.39221,-3.602056 -0.20624,-1.243369 -0.65393,-2.344504 -0.90178,-3.353793 -2.11892,1.464737 -6.43105,2.926778 -8.45177,3.36729 z"
       id="path4-5"
       sodipodi:nodetypes="cccccccc" /><path
       id="path6-6"
       style="fill:#ffffff;fill-opacity:1;stroke:#000000;stroke-width:0.1;stroke-linejoin:round;paint-order:markers fill stroke"
       d="m 112.80728,35.171897 c 0.38932,3.226484 -0.84682,4.902421 -2.61791,5.000725 -1.69745,0.09422 -4.73886,-1.915185 -4.75226,-4.937823 -0.0124,-2.788032 0.51449,-4.437123 2.35112,-5.755552 0.74138,-0.532204 2.24778,0.0861 3.30843,1.133921 1.07145,1.058492 1.53318,3.088209 1.71062,4.558729 z"
       sodipodi:nodetypes="ssssss" /><path
       style="fill:#ffffff;fill-opacity:1;stroke:#000000;stroke-width:0.1;stroke-linejoin:round;stroke-dasharray:none;paint-order:markers fill stroke"
       d="m 110.60623,29.620775 c 1.16588,0.26072 1.99511,1.13646 2.68461,2.091499 1.03696,1.342316 1.07658,2.575816 1.20057,3.821308 0.0748,0.942059 -0.0658,1.754948 -0.50024,2.626169 -1.05588,1.539857 -1.65947,1.452559 -2.55121,1.792713 0.81109,-0.589273 1.15512,-1.605528 1.30634,-2.517998 0.23333,-1.418657 0.006,-2.779373 -0.27251,-4.055284 -0.12095,-1.666827 -1.7145,-2.91908 -1.86756,-3.758407 z"
       id="path7-5"
       sodipodi:nodetypes="cccccccc" /><path
       style="fill:none;fill-opacity:1;stroke:#000000;stroke-width:0.1;stroke-linejoin:round;stroke-dasharray:none;paint-order:markers fill stroke"
       d="m 104.58483,40.153376 c 2.19139,2.450076 6.10309,2.793338 9.58976,2.433347"
       id="path8-1"
       sodipodi:nodetypes="cc" /><path
       style="fill:none;fill-opacity:1;stroke:#000000;stroke-width:0.1;stroke-linejoin:round;stroke-dasharray:none;paint-order:markers fill stroke"
       d="m 104.35346,41.218858 c -0.083,-1.489518 0.66261,-1.402708 1.17907,-1.512271"
       id="path9-8"
       sodipodi:nodetypes="cc" /><path
       style="display:inline;fill:#96d73b;fill-opacity:1;stroke:#000000;stroke-width:0.1;stroke-linejoin:round;stroke-dasharray:none;paint-order:markers fill stroke"
       d="m 84.66057,62.156941 c 3.085975,1.409693 8.788881,3.061731 9.704611,3.176561 2.934729,0.819803 10.104799,1.32447 13.723189,1.320944 2.94157,-0.08749 7.61886,-0.199237 11.38874,-0.408862 l -0.21677,1.651184 c -5.38133,0.159311 -10.73653,0.540374 -16.15768,0.361687 C 99.456487,67.912212 95.81031,67.601484 92.164133,66.6859 89.522328,65.945304 87.002278,64.994195 84.627219,63.792397 Z"
       id="path5-3"
       sodipodi:nodetypes="ccccccccc" /><path
       style="fill:none;fill-opacity:1;stroke:#000000;stroke-width:0.1;stroke-linejoin:round;stroke-dasharray:none;paint-order:markers fill stroke"
       d="m 118.84205,64.114206 c -0.67377,-0.439935 -1.95268,0.555511 -0.18056,1.089727"
       id="path10-7"
       sodipodi:nodetypes="cc" /><path
       style="display:inline;fill:#ff8c9e;fill-opacity:1;stroke:#000000;stroke-width:0.1;stroke-linejoin:round;stroke-dasharray:none;paint-order:markers fill stroke"
       d="m 96.711127,54.338512 c 0.896569,3.889949 2.310062,7.75894 5.775753,11.544731 1.5805,1.253781 2.82781,2.694103 5.12102,3.548846 3.21938,0.72042 5.22412,-0.06597 5.7746,-2.656394 0.22025,-6.99207 -4.47223,-12.325817 -6.29075,-16.014342"
       id="path11-9"
       sodipodi:nodetypes="ccccc" /><path
       id="path12-0"
       style="fill:#000000;fill-opacity:1;stroke:#000000;stroke-width:0.1;stroke-linejoin:round;paint-order:markers fill stroke"
       d="m 112.78972,35.080667 c 0.09,0.765061 0.0749,1.336709 -0.30656,1.435982 -0.43476,0.11314 -1.26392,-0.572506 -1.2734,-1.509153 -0.01,-0.941955 0.65224,-1.518739 1.04938,-1.463421 0.37174,0.05178 0.443,0.792077 0.53058,1.536592 z"
       sodipodi:nodetypes="sssss" /><path
       id="path13-7"
       style="fill:#000000;fill-opacity:1;stroke:#000000;stroke-width:0.0999998;stroke-linejoin:round;paint-order:markers fill stroke"
       d="m 114.41418,35.072554 c 0.0761,0.761033 0.0634,1.329673 -0.25939,1.428423 -0.36787,0.112534 -1.06945,-0.569494 -1.07747,-1.50121 -0.008,-0.936997 0.55188,-1.510744 0.88791,-1.455718 0.31454,0.05151 0.37485,0.787908 0.44895,1.528505 z"
       sodipodi:nodetypes="sssss" /><path
       style="fill:#96d73b;fill-opacity:1;stroke:#000000;stroke-width:0.1;stroke-linejoin:round;stroke-dasharray:none;paint-order:markers fill stroke"
       d="m 84.744488,63.749329 c 0.08101,1.318794 0.01814,3.274976 0.395441,4.623184 0.516981,1.943669 1.42628,4.167555 2.559253,5.57655 1.480266,2.118045 4.869432,4.896069 6.289929,4.385141 2.03342,-0.731386 2.100816,-1.60371 2.231877,-1.653934 0,0 2.131272,0.134191 2.456094,-0.347699 l 3.572998,0.0059 1.83004,4.009894 c 2.74456,-0.392431 7.10237,-2.040502 9.36251,-3.545252 l -1.41126,-2.749377 1.27841,2.099273 c 0.71164,-0.329374 1.73463,-1.15284 2.40791,-1.677992 0.54222,-0.529278 1.1226,-1.08314 1.5146,-1.638125 1.27555,-1.751646 1.81911,-3.501148 2.00696,-4.908624 -2.59826,0.05958 -0.76358,0.22436 -6.21319,0.09531 -1.23481,1.251227 -2.75012,2.491112 -7.70038,0.203821 -0.36899,0.04333 -0.12439,0.02674 -1.41129,0.05387 C 97.362683,67.753025 93.224443,66.935922 92.74218,66.86372 92.391225,66.750425 91.112354,66.331752 88.913526,65.615382 87.494709,65.167279 86.16331,64.394565 84.744493,63.749352 Z"
       id="path14-7"
       sodipodi:nodetypes="cccsscccccccccccccccc" /><path
       id="path15-4"
       style="fill:#6117b0;fill-opacity:1;stroke:#000000;stroke-width:0.0249999;stroke-linejoin:round;stroke-dasharray:none;paint-order:markers fill stroke"
       d="m 86.920888,64.836981 c 0.272376,0.160657 -0.338585,1.294418 -0.95505,1.467792 -0.397625,0.111823 -1.117865,-0.129373 -1.16728,-0.778375 -0.137055,-1.800054 -0.253418,-1.903611 -0.01173,-1.779143 0.411274,0.211803 1.546939,0.743423 2.039795,1.034126 z"
       sodipodi:nodetypes="ssssss" /><path
       style="fill:#6117b0;fill-opacity:1;stroke:#000000;stroke-width:0.0249999;stroke-linejoin:round;stroke-dasharray:none;paint-order:markers fill stroke"
       d="m 114.77056,68.028322 c -0.57174,0.649403 -0.33053,1.322764 0.0943,2.001538 1.00417,0.570111 1.62516,-0.07943 2.4053,-0.222395 -0.78419,0.358971 -0.93602,1.168042 -0.55416,1.623468 0.38579,0.309902 0.98496,0.540578 1.30877,0.03336 0.6931,-1.171925 0.99994,-2.368132 1.22623,-3.569406 z"
       id="path17-9"
       sodipodi:nodetypes="ccccccc" /><path
       style="fill:#96d73b;fill-opacity:1;stroke:#000000;stroke-width:0.1;stroke-linejoin:round;stroke-dasharray:none;paint-order:markers fill stroke"
       d="m 103.34548,76.19642 -0.14914,4.060908 c -3.06049,0.610876 -7.260209,0.615457 -9.868681,-0.09522 l 0.02219,-4.182388 0.01484,0.0079"
       id="path18"
       sodipodi:nodetypes="ccccc" /><path
       style="fill:#ff8c9e;fill-opacity:1;stroke:#000000;stroke-width:0.1;stroke-linejoin:round;stroke-dasharray:none;paint-order:markers fill stroke"
       d="m 93.887678,80.332087 c 0.0835,1.047134 0.14843,2.357694 0.750797,3.38899 0.434212,0.97129 1.057172,1.987877 1.840407,2.32213 1.455493,0.954903 3.072075,0.718695 4.045168,0.05041 1.20552,-0.683617 1.58417,-1.953531 1.70871,-2.737947 0.28015,-1.078038 0.37161,-2.112825 0.5261,-3.01921 -2.46301,0.485495 -6.826709,0.351455 -8.835348,-0.02742 z"
       id="path19"
       sodipodi:nodetypes="cccccccc" /><path
       style="fill:#6117b0;fill-opacity:1;stroke:#000000;stroke-width:0.0249999;stroke-linejoin:round;stroke-dasharray:none;paint-order:markers fill stroke"
       d="m 95.154247,80.392376 c 1.946419,0.32379 4.02257,0.471849 5.947733,0.1414 1.52694,-0.106401 1.47847,-1.916949 1.18647,-2.696311 -0.75135,-0.94592 -1.6837,-0.31136 -2.421799,0.319253 0.407129,-0.840965 0.552509,-1.456396 0.452839,-2.838059 -0.666526,-1.025 -2.486127,-1.19684 -3.557358,-0.391699 -0.497848,0.799843 -0.230205,1.891705 -0.104099,2.979191 -1.39487,-0.8844 -2.455534,-0.557137 -2.671777,-0.0365 -0.559988,1.841323 0.365965,2.029299 1.167991,2.522731 z"
       id="path20"
       sodipodi:nodetypes="cccccccccc" /><path
       style="fill:#ff8c9e;fill-opacity:1;stroke:#000000;stroke-width:0.1;stroke-linejoin:round;stroke-dasharray:none;paint-order:markers fill stroke"
       d="m 172.55257,10.09224 c -2.07557,0.197383 -3.7512,1.515801 -2.66794,10.567571 0.058,10.114854 -1.54306,19.864632 -6.80323,28.809211 -1.88996,3.397333 -4.20489,6.147746 -4.44116,10.826156 -0.1154,1.236415 -0.61818,7.40585 2.57361,11.944441 2.08531,1.533028 5.65987,-1.928191 7.00027,1.755109 l -2.56901,-4.235708 1.5853,0.796338 c 3.69103,0.901798 9.08643,-0.153207 14.34582,-1.066029 l 1.24789,5.014771 3.71466,-5.149657 c 2.37094,0.566464 1.43396,6.234421 3.48876,4.520632 1.66465,-1.709064 3.0483,-3.842158 3.38948,-7.548262 1.71935,-7.161956 -2.76153,-13.471631 -5.65722,-18.115837 -0.48716,-1.970316 0.17793,-4.039694 0.40018,-5.787001 l -1.36731,-0.09435 c -0.032,-6.068093 -1.93236,-12.497801 -4.36874,-18.398897 -1.94275,-4.594451 -3.79533,-12.485098 -9.87136,-13.838485 z"
       id="path1-5-0"
       sodipodi:nodetypes="ccccccccccccccccccc" /><path
       style="fill:#000000;fill-opacity:1;stroke:#000000;stroke-width:0.1;stroke-linejoin:round;stroke-dasharray:none;paint-order:markers fill stroke"
       d="m 178.93631,26.863302 0.49521,1.712425 2.80619,-2.001536 -0.5188,-1.534511 z"
       id="path2-2-0" /><path
       style="fill:#000000;fill-opacity:1;stroke:#000000;stroke-width:0.1;stroke-linejoin:round;stroke-dasharray:none;paint-order:markers fill stroke"
       d="m 184.39759,27.627021 0.49417,-1.054402 -1.97973,-1.689149 0.74581,2.160915 z"
       id="path3-3-0"
       sodipodi:nodetypes="ccccc" /><path
       style="fill:#ff8c9e;fill-opacity:1;stroke:#000000;stroke-width:0.0999998;stroke-linejoin:round;stroke-dasharray:none;paint-order:markers fill stroke"
       d="m 178.46684,80.03733 c 0.52699,1.049319 1.58147,2.966741 2.57826,3.7685 0.81654,0.8144 1.82592,1.591721 2.68912,1.589654 1.74761,0.342467 3.131,-0.622726 3.73748,-1.749611 0.8134,-1.246321 0.61513,-2.73266 0.39221,-3.602056 -0.20624,-1.243369 -0.65393,-2.344504 -0.90178,-3.353793 -2.11892,1.464737 -6.43105,2.926778 -8.45177,3.36729 z"
       id="path4-5-4"
       sodipodi:nodetypes="cccccccc" /><path
       id="path6-6-0"
       style="fill:#ffffff;fill-opacity:1;stroke:#000000;stroke-width:0.1;stroke-linejoin:round;paint-order:markers fill stroke"
       d="m 186.75932,35.127321 c 0.38932,3.226484 -0.84682,4.902421 -2.61791,5.000725 -1.69745,0.09422 -4.73885,-1.915185 -4.75226,-4.937823 -0.0124,-2.788032 0.51449,-4.437123 2.35112,-5.755552 0.74138,-0.532204 2.24779,0.0861 3.30843,1.133921 1.07145,1.058492 1.53318,3.088209 1.71062,4.558729 z"
       sodipodi:nodetypes="ssssss" /><path
       style="fill:#ffffff;fill-opacity:1;stroke:#000000;stroke-width:0.1;stroke-linejoin:round;stroke-dasharray:none;paint-order:markers fill stroke"
       d="m 184.55827,29.576199 c 1.16588,0.26072 1.99511,1.13646 2.68461,2.091499 1.03696,1.342316 1.07658,2.575816 1.20057,3.821308 0.0748,0.942059 -0.0658,1.754948 -0.50024,2.626169 -1.05588,1.539857 -1.65947,1.452559 -2.55121,1.792713 0.81109,-0.589273 1.15512,-1.605528 1.30634,-2.517998 0.23333,-1.418657 0.006,-2.779373 -0.27251,-4.055284 -0.12095,-1.666827 -1.7145,-2.91908 -1.86756,-3.758407 z"
       id="path7-5-2"
       sodipodi:nodetypes="cccccccc" /><path
       style="fill:none;fill-opacity:1;stroke:#000000;stroke-width:0.1;stroke-linejoin:round;stroke-dasharray:none;paint-order:markers fill stroke"
       d="m 178.53687,40.1088 c 2.19139,2.450076 6.10309,2.793338 9.58976,2.433347"
       id="path8-1-7"
       sodipodi:nodetypes="cc" /><path
       style="fill:none;fill-opacity:1;stroke:#000000;stroke-width:0.1;stroke-linejoin:round;stroke-dasharray:none;paint-order:markers fill stroke"
       d="m 178.3055,41.174282 c -0.083,-1.489518 0.66261,-1.402708 1.17907,-1.512271"
       id="path9-8-5"
       sodipodi:nodetypes="cc" /><path
       style="display:inline;fill:#96d73b;fill-opacity:1;stroke:#000000;stroke-width:0.1;stroke-linejoin:round;stroke-dasharray:none;paint-order:markers fill stroke"
       d="m 158.61261,62.112365 c 3.08598,1.409693 8.78888,3.061731 9.70461,3.176561 2.93473,0.819803 10.10481,1.32447 13.72319,1.320944 2.94158,-0.08749 7.61886,-0.199237 11.38874,-0.408862 l -0.21677,1.651184 c -5.38132,0.159311 -10.73653,0.540374 -16.15767,0.361687 -3.64618,-0.346243 -7.29236,-0.656971 -10.93853,-1.572555 -2.64181,-0.740596 -5.16186,-1.691705 -7.53692,-2.893503 z"
       id="path5-3-1"
       sodipodi:nodetypes="ccccccccc" /><path
       style="fill:none;fill-opacity:1;stroke:#000000;stroke-width:0.1;stroke-linejoin:round;stroke-dasharray:none;paint-order:markers fill stroke"
       d="m 192.79409,64.06963 c -0.67377,-0.439935 -1.95267,0.555511 -0.18056,1.089727"
       id="path10-7-0"
       sodipodi:nodetypes="cc" /><path
       style="display:inline;fill:#ff8c9e;fill-opacity:1;stroke:#000000;stroke-width:0.1;stroke-linejoin:round;stroke-dasharray:none;paint-order:markers fill stroke"
       d="m 173.49866,48.61921 c -3.13166,2.475528 -6.02309,5.409245 -7.96079,10.161985 -0.45648,1.965084 -1.22418,3.70892 -1.01493,6.147284 0.72714,3.217879 2.29605,4.692973 4.87275,4.081513 6.41326,-2.794224 9.22473,-9.318325 11.77966,-12.54083"
       id="path11-9-1"
       sodipodi:nodetypes="ccccc" /><path
       id="path12-0-1"
       style="fill:#000000;fill-opacity:1;stroke:#000000;stroke-width:0.1;stroke-linejoin:round;paint-order:markers fill stroke"
       d="m 186.74176,35.036091 c 0.09,0.765061 0.0749,1.336709 -0.30656,1.435982 -0.43476,0.11314 -1.26392,-0.572506 -1.2734,-1.509153 -0.01,-0.941955 0.65224,-1.518739 1.04938,-1.463421 0.37174,0.05178 0.443,0.792077 0.53058,1.536592 z"
       sodipodi:nodetypes="sssss" /><path
       id="path13-7-5"
       style="fill:#000000;fill-opacity:1;stroke:#000000;stroke-width:0.0999998;stroke-linejoin:round;paint-order:markers fill stroke"
       d="m 188.36622,35.027978 c 0.0762,0.761033 0.0634,1.329673 -0.25939,1.428423 -0.36787,0.112534 -1.06945,-0.569494 -1.07747,-1.50121 -0.008,-0.936997 0.55188,-1.510744 0.88791,-1.455718 0.31455,0.05151 0.37485,0.787908 0.44895,1.528505 z"
       sodipodi:nodetypes="sssss" /><path
       style="fill:#96d73b;fill-opacity:1;stroke:#000000;stroke-width:0.1;stroke-linejoin:round;stroke-dasharray:none;paint-order:markers fill stroke"
       d="m 158.69653,63.704753 c 0.081,1.318794 0.0181,3.274976 0.39544,4.623184 0.51698,1.943669 1.42628,4.167555 2.55925,5.57655 1.48027,2.118045 5.00458,5.402852 6.42507,4.891924 2.03342,-0.731386 2.24041,-0.987665 2.37147,-1.037889 0,0 2.10738,0.277531 2.4322,-0.204359 -0.0778,0.002 2.56118,-0.557481 3.75218,-0.555515 l 1.40002,3.305141 c 2.74457,-0.392431 7.10237,-2.040502 9.36251,-3.545252 l -1.41126,-2.749377 1.27841,2.099273 c 0.71164,-0.329374 1.73463,-1.15284 2.40791,-1.677992 0.54222,-0.529278 1.1226,-1.08314 1.5146,-1.638125 1.27555,-1.751646 1.81911,-3.501148 2.00696,-4.908624 -2.59826,0.05958 -10.89923,0.325717 -16.34884,0.196666 l -4.82439,-0.488783 c -0.369,0.146117 -2.50205,2.11024 -5.1657,1.18568 -0.63925,-0.161815 -1.80436,-1.841057 -1.94877,-2.498679 -0.35095,-0.113295 0.16081,0.0086 -2.03802,-0.70777 -1.41882,-0.448103 -2.75022,-1.220817 -4.16903,-1.86603 z"
       id="path14-7-6"
       sodipodi:nodetypes="cccsscccccccccccccccc" /><path
       id="path15-4-3"
       style="fill:#6117b0;fill-opacity:1;stroke:#000000;stroke-width:0.0249999;stroke-linejoin:round;stroke-dasharray:none;paint-order:markers fill stroke"
       d="m 160.87293,64.792405 c 0.27238,0.160657 -0.33858,1.294418 -0.95505,1.467792 -0.39763,0.111823 -1.11786,-0.129373 -1.16728,-0.778375 -0.13706,-1.800054 -0.25342,-1.903611 -0.0117,-1.779143 0.41127,0.211803 1.54694,0.743423 2.03979,1.034126 z"
       sodipodi:nodetypes="ssssss" /><path
       style="fill:#6117b0;fill-opacity:1;stroke:#000000;stroke-width:0.0249999;stroke-linejoin:round;stroke-dasharray:none;paint-order:markers fill stroke"
       d="m 188.7226,67.983746 c -0.57174,0.649403 -0.33053,1.322764 0.0943,2.001538 1.00417,0.570111 1.62516,-0.07943 2.4053,-0.222395 -0.78419,0.358971 -0.93602,1.168042 -0.55416,1.623468 0.38579,0.309902 0.98496,0.540578 1.30877,0.03336 0.6931,-1.171925 0.99994,-2.368132 1.22623,-3.569406 z"
       id="path17-9-4"
       sodipodi:nodetypes="ccccccc" /><path
       style="fill:#96d73b;fill-opacity:1;stroke:#000000;stroke-width:0.1;stroke-linejoin:round;stroke-dasharray:none;paint-order:markers fill stroke"
       d="m 176.9931,76.597908 0.15526,3.614844 c -3.06049,0.610876 -7.26021,0.615457 -9.86868,-0.09522 l -0.0375,-1.578383 0.0387,-1.485222"
       id="path18-5"
       sodipodi:nodetypes="ccccc" /><path
       style="fill:#ff8c9e;fill-opacity:1;stroke:#000000;stroke-width:0.1;stroke-linejoin:round;stroke-dasharray:none;paint-order:markers fill stroke"
       d="m 167.83972,80.287511 c 0.0835,1.047134 0.14843,2.357694 0.7508,3.38899 0.43421,0.97129 1.05717,1.987877 1.8404,2.32213 1.4555,0.954903 3.07208,0.718695 4.04518,0.05041 1.20551,-0.683617 1.58416,-1.953531 1.7087,-2.737947 0.28015,-1.078038 0.37161,-2.112825 0.5261,-3.01921 -2.46301,0.485495 -6.82671,0.351455 -8.83535,-0.02742 z"
       id="path19-3"
       sodipodi:nodetypes="cccccccc" /><path
       style="fill:#96d73b;fill-opacity:1;stroke:#000000;stroke-width:0.1;stroke-linejoin:round;stroke-dasharray:none;paint-order:markers fill stroke"
       d="m 176.33552,76.422671 1.77585,4.034967 c 3.16789,-0.845958 6.31996,-1.916011 9.29681,-3.687071 l -1.40789,-2.782851"
       id="path21"
       sodipodi:nodetypes="cccc" /><path
       style="fill:#6117b0;fill-opacity:1;stroke:#000000;stroke-width:0.0249999;stroke-linejoin:round;stroke-dasharray:none;paint-order:markers fill stroke"
       d="m 180.20258,79.826455 c 1.91057,-0.493081 3.90228,-1.098041 5.52818,-2.18057 1.35271,-0.716282 0.54062,-2.453085 -0.0418,-3.047161 -1.07032,-0.560105 -1.66537,0.397943 -2.08445,1.273635 0.0312,-0.933809 -0.0854,-1.555337 -0.73657,-2.77797 -1.02484,-0.666786 -2.75787,-0.08621 -3.41074,1.084076 -0.13084,0.932992 0.55646,1.822608 1.1126,2.765599 -1.63364,-0.242992 -2.47057,0.486165 -2.45718,1.049763 0.23456,1.910247 1.15721,1.706707 2.09042,1.832633 z"
       id="path22"
       sodipodi:nodetypes="cccccccccc" /><path
       style="fill:#96d73b;fill-opacity:1;stroke:#000000;stroke-width:0.1;stroke-linejoin:round;stroke-dasharray:none;paint-order:markers fill stroke"
       d="m 167.28471,78.798361 c -0.47387,-0.162733 -0.92064,-0.406041 -1.32185,-0.669375"
       id="path23"
       sodipodi:nodetypes="cc" /><path
       style="fill:#6117b0;fill-opacity:1;stroke:#000000;stroke-width:0.0249999;stroke-linejoin:round;stroke-dasharray:none;paint-order:markers fill stroke"
       d="m 25.825579,79.436778 c 1.946419,0.32379 4.02257,0.471849 5.947733,0.1414 1.52694,-0.106401 1.47847,-1.916949 1.18647,-2.696311 -0.75135,-0.94592 -1.6837,-0.31136 -2.421799,0.319253 0.407129,-0.840965 0.552509,-1.456396 0.452839,-2.838059 -0.666526,-1.025 -2.486127,-1.19684 -3.557358,-0.391699 -0.497848,0.799843 -0.230205,1.891705 -0.104099,2.979191 -1.39487,-0.8844 -2.455534,-0.557137 -2.671777,-0.0365 -0.559988,1.841323 0.365965,2.029299 1.167991,2.522731 z"
       id="path24"
       sodipodi:nodetypes="cccccccccc" /><path
       style="fill:#ff8c9e;fill-opacity:1;stroke:#000000;stroke-width:0.1;stroke-linejoin:round;stroke-dasharray:none;paint-order:markers fill stroke"
       d="m 29.263839,86.148448 c 0.914109,-0.148218 1.691692,-0.06096 3.023659,-1.129973 1.310364,-1.459228 1.488543,-3.636689 1.564731,-5.692154 l -0.467201,0.09931 c -0.135978,0.947361 -0.246835,1.894722 -0.410373,2.842083 l -0.878424,2.128488 c -0.291678,0.406178 -0.601331,0.800374 -1.081135,1.081135 -0.56244,0.259291 -1.135968,0.47525 -1.751257,0.671111 z"
       id="path26"
       sodipodi:nodetypes="cccccccc" /><path
       style="fill:#ff8c9e;fill-opacity:1;stroke:#000000;stroke-width:0.1;stroke-linejoin:round;stroke-dasharray:none;paint-order:markers fill stroke"
       d="m 244.58191,10.753048 c -2.07556,0.197383 -3.7512,1.515801 -2.66793,10.56757 0.058,10.114854 -1.54307,19.864632 -6.80323,28.809211 -1.88996,3.397333 -4.2049,6.147746 -4.44117,10.826156 -0.1154,1.236415 -0.61817,7.40585 2.57361,11.944441 1.96052,1.818284 4.63325,3.323932 7.23677,4.120095 l 0.10005,-2.107222 2.02451,0.08684 c 3.69103,0.901798 4.39024,-0.474169 9.64964,-1.386991 l 2.5993,1.551756 0.1334,2.012871 c 2.37094,0.566464 5.01522,-0.928107 7.07002,-2.641896 1.66466,-1.709064 3.0483,-3.842158 3.38948,-7.548262 1.71935,-7.161956 -2.76152,-13.471631 -5.65722,-18.115837 -0.48715,-1.970316 0.17794,-4.039694 0.40019,-5.787001 l -1.36732,-0.09435 c -0.032,-6.068093 -1.93236,-12.497801 -4.36874,-18.398897 -1.94275,-4.594451 -3.79533,-12.485097 -9.87136,-13.838484 z"
       id="path1-2"
       sodipodi:nodetypes="ccccccccccccccccccc" /><path
       style="fill:#000000;fill-opacity:1;stroke:#000000;stroke-width:0.1;stroke-linejoin:round;stroke-dasharray:none;paint-order:markers fill stroke"
       d="m 250.96565,27.524109 0.49521,1.712425 2.80619,-2.001536 -0.51879,-1.534511 z"
       id="path2-7" /><path
       style="fill:#000000;fill-opacity:1;stroke:#000000;stroke-width:0.1;stroke-linejoin:round;stroke-dasharray:none;paint-order:markers fill stroke"
       d="m 256.42694,28.287828 0.49417,-1.054402 -1.97974,-1.689149 0.74582,2.160915 z"
       id="path3-9"
       sodipodi:nodetypes="ccccc" /><path
       style="fill:#ff8c9e;fill-opacity:1;stroke:#000000;stroke-width:0.1;stroke-linejoin:round;stroke-dasharray:none;paint-order:markers fill stroke"
       d="m 242.33433,79.034558 c 0.11077,1.237077 0.42581,3.143414 1.15142,4.38049 0.68774,0.994281 1.03109,1.78525 1.96324,2.207351 1.4896,0.784004 2.50734,0.261561 3.79684,-0.26158 1.28874,-0.963663 1.3698,-1.726886 1.79841,-2.525893 0.42097,-1.159352 0.45571,-2.455827 0.62861,-3.518472 -2.92497,0.324602 -6.29904,0.384548 -8.67125,-0.197427 z"
       id="path4-4"
       sodipodi:nodetypes="cccccccc" /><path
       id="path6-5"
       style="fill:#ffffff;fill-opacity:1;stroke:#000000;stroke-width:0.1;stroke-linejoin:round;paint-order:markers fill stroke"
       d="m 258.78867,35.788128 c 0.38932,3.226484 -0.84682,4.902421 -2.61791,5.000725 -1.69745,0.09422 -4.73886,-1.915185 -4.75226,-4.937823 -0.0124,-2.788032 0.51449,-4.437123 2.35111,-5.755552 0.74139,-0.532204 2.24779,0.0861 3.30843,1.133921 1.07145,1.058492 1.53319,3.088209 1.71063,4.558729 z"
       sodipodi:nodetypes="ssssss" /><path
       style="fill:#ffffff;fill-opacity:1;stroke:#000000;stroke-width:0.1;stroke-linejoin:round;stroke-dasharray:none;paint-order:markers fill stroke"
       d="m 256.58762,30.237006 c 1.16587,0.26072 1.99511,1.13646 2.68461,2.091499 1.03696,1.342316 1.07658,2.575816 1.20057,3.821308 0.0748,0.942059 -0.0658,1.754948 -0.50024,2.626169 -1.05589,1.539857 -1.65947,1.452559 -2.55121,1.792713 0.81109,-0.589273 1.15511,-1.605528 1.30634,-2.517998 0.23333,-1.418657 0.006,-2.779373 -0.27252,-4.055284 -0.12094,-1.666827 -1.7145,-2.91908 -1.86755,-3.758407 z"
       id="path7-2"
       sodipodi:nodetypes="cccccccc" /><path
       style="fill:none;fill-opacity:1;stroke:#000000;stroke-width:0.1;stroke-linejoin:round;stroke-dasharray:none;paint-order:markers fill stroke"
       d="m 250.56621,40.769607 c 2.1914,2.450076 6.1031,2.793338 9.58977,2.433347"
       id="path8-5"
       sodipodi:nodetypes="cc" /><path
       style="fill:none;fill-opacity:1;stroke:#000000;stroke-width:0.1;stroke-linejoin:round;stroke-dasharray:none;paint-order:markers fill stroke"
       d="m 250.33485,41.835089 c -0.083,-1.489518 0.66261,-1.402708 1.17907,-1.512271"
       id="path9-4"
       sodipodi:nodetypes="cc" /><path
       style="display:inline;fill:#96d73b;fill-opacity:1;stroke:#000000;stroke-width:0.1;stroke-linejoin:round;stroke-dasharray:none;paint-order:markers fill stroke"
       d="m 230.64196,62.773172 c 3.08597,1.409693 8.78888,3.061731 9.70461,3.176561 2.93473,0.819803 10.1048,1.32447 13.72319,1.320944 2.94157,-0.08749 7.61885,-0.199237 11.38874,-0.408862 l -0.21677,1.651184 c -5.38133,0.159311 -10.73653,0.540374 -16.15768,0.361687 -3.64618,-0.346243 -7.29235,-0.656971 -10.93853,-1.572555 -2.6418,-0.740596 -5.16185,-1.691705 -7.53691,-2.893503 z"
       id="path5-9"
       sodipodi:nodetypes="ccccccccc" /><path
       style="fill:none;fill-opacity:1;stroke:#000000;stroke-width:0.1;stroke-linejoin:round;stroke-dasharray:none;paint-order:markers fill stroke"
       d="m 264.82344,64.730437 c -0.67377,-0.439935 -1.95268,0.555511 -0.18056,1.089727"
       id="path10-5"
       sodipodi:nodetypes="cc" /><path
       style="display:inline;fill:#ff8c9e;fill-opacity:1;stroke:#000000;stroke-width:0.1;stroke-linejoin:round;stroke-dasharray:none;paint-order:markers fill stroke"
       d="m 240.01308,50.255633 c -1.11805,3.832169 -1.77481,7.898582 -0.60029,12.894951 0.76655,1.8661 1.15126,3.732199 2.73463,5.598299 2.45714,2.201361 4.59054,2.494561 6.33635,0.503216 3.60799,-5.993326 2.11926,-12.939683 2.33444,-17.046498"
       id="path11-2"
       sodipodi:nodetypes="ccccc" /><path
       id="path12-6"
       style="fill:#000000;fill-opacity:1;stroke:#000000;stroke-width:0.1;stroke-linejoin:round;paint-order:markers fill stroke"
       d="m 258.7711,35.696898 c 0.09,0.765061 0.0749,1.336709 -0.30656,1.435982 -0.43475,0.11314 -1.26391,-0.572506 -1.27339,-1.509153 -0.01,-0.941955 0.65224,-1.518739 1.04937,-1.463421 0.37174,0.05178 0.44301,0.792077 0.53058,1.536592 z"
       sodipodi:nodetypes="sssss" /><path
       id="path13-9"
       style="fill:#000000;fill-opacity:1;stroke:#000000;stroke-width:0.0999998;stroke-linejoin:round;paint-order:markers fill stroke"
       d="m 260.39556,35.688785 c 0.0761,0.761033 0.0634,1.329673 -0.25939,1.428423 -0.36786,0.112534 -1.06945,-0.569494 -1.07747,-1.50121 -0.008,-0.936997 0.55189,-1.510744 0.88792,-1.455718 0.31454,0.05151 0.37484,0.787908 0.44894,1.528505 z"
       sodipodi:nodetypes="sssss" /><path
       style="fill:#96d73b;fill-opacity:1;stroke:#000000;stroke-width:0.1;stroke-linejoin:round;stroke-dasharray:none;paint-order:markers fill stroke"
       d="m 230.72588,64.36556 c 0.081,1.318794 0.15328,2.599266 0.53058,3.947474 0.51698,1.740956 0.99626,3.559416 2.12923,4.968411 2.06006,2.686473 5.5364,4.619564 7.83971,4.885331 l 0.80382,-2.80084 0.0213,3.533913 c 4.72809,0.99027 5.77002,0.885791 10.09018,0.295612 l 0.12479,-3.574224 0.23087,3.141531 c 1.03422,0.228087 6.31564,-1.7514 6.90049,-2.210568 0.75723,-0.362049 2.70812,-1.970756 3.10012,-2.525741 1.72946,-1.512746 2.5358,-4.074507 2.72365,-5.481983 -2.59826,0.05958 -10.89922,0.325717 -16.34884,0.196666 l -1.22623,1.234278 c -0.369,0.146117 -1.48848,1.350066 -4.69271,-0.689416 -0.40434,-0.197953 -0.90077,-0.830064 -1.3913,-1.434435 -2.24295,-0.383579 -4.46781,-0.903563 -6.66664,-1.619979 -1.41882,-0.448103 -2.75022,-1.220817 -4.16903,-1.86603 z"
       id="path14-1"
       sodipodi:nodetypes="ccccccccccccccccccc" /><path
       id="path15-8"
       style="fill:#6117b0;fill-opacity:1;stroke:#000000;stroke-width:0.0249999;stroke-linejoin:round;stroke-dasharray:none;paint-order:markers fill stroke"
       d="m 232.90228,65.453212 c 0.27237,0.160657 -0.33859,1.294418 -0.95505,1.467792 -0.39763,0.111823 -1.11787,-0.129373 -1.16728,-0.778375 -0.13706,-1.800054 -0.25342,-1.903611 -0.0117,-1.779143 0.41127,0.211803 1.54693,0.743423 2.03979,1.034126 z"
       sodipodi:nodetypes="ssssss" /><path
       style="fill:#6117b0;fill-opacity:1;stroke:#000000;stroke-width:0.0249999;stroke-linejoin:round;stroke-dasharray:none;paint-order:markers fill stroke"
       d="m 260.75194,68.644553 c -0.57173,0.649403 -0.33052,1.322764 0.0943,2.001538 1.00418,0.570111 1.62517,-0.07943 2.40531,-0.222395 -0.78419,0.358971 -0.93603,1.168042 -0.55416,1.623468 0.38578,0.309902 0.98496,0.540578 1.30876,0.03336 0.6931,-1.171925 0.99995,-2.368132 1.22624,-3.569406 z"
       id="path17-1"
       sodipodi:nodetypes="ccccccc" /><path
       style="fill:#6117b0;fill-opacity:1;stroke:#000000;stroke-width:0.0249999;stroke-linejoin:round;stroke-dasharray:none;paint-order:markers fill stroke"
       d="m 244.09615,79.29605 c 1.94642,0.32379 4.02257,0.471849 5.94773,0.1414 1.52694,-0.106401 1.47847,-1.916949 1.18647,-2.696311 -0.75135,-0.94592 -1.6837,-0.31136 -2.4218,0.319253 0.40713,-0.840965 0.55251,-1.456396 0.45284,-2.838059 -0.66652,-1.025 -2.48613,-1.19684 -3.55736,-0.391699 -0.49784,0.799843 -0.2302,1.891705 -0.1041,2.979191 -1.39487,-0.8844 -2.45553,-0.557137 -2.67177,-0.0365 -0.55999,1.841323 0.36596,2.029299 1.16799,2.522731 z"
       id="path24-6"
       sodipodi:nodetypes="cccccccccc" /><path
       style="fill:#ff8c9e;fill-opacity:1;stroke:#000000;stroke-width:0.1;stroke-linejoin:round;stroke-dasharray:none;paint-order:markers fill stroke"
       d="m 247.53441,86.00772 c 0.91411,-0.148218 1.69169,-0.06096 3.02366,-1.129973 1.31036,-1.459228 1.48854,-3.636689 1.56473,-5.692154 l -0.4672,0.09931 c -0.13598,0.947361 -0.24684,1.894722 -0.41037,2.842083 l -0.87843,2.128488 c -0.29168,0.406178 -0.60133,0.800374 -1.08113,1.081135 -0.56244,0.259291 -1.13597,0.47525 -1.75126,0.671111 z"
       id="path26-0"
       sodipodi:nodetypes="cccccccc" /></g></svg>
